<svg xmlns="http://www.w3.org/2000/svg" xmlns:xlink="http://www.w3.org/1999/xlink" width="100" zoomAndPan="magnify" viewBox="0 0 75 74.999997" height="100" preserveAspectRatio="xMidYMid meet" version="1.0"><defs><clipPath id="0b676804a9"><path d="M 4.140625 7 L 70.890625 7 L 70.890625 58 L 4.140625 58 Z M 4.140625 7 " clip-rule="nonzero"/></clipPath><clipPath id="d17e3d0670"><path d="M 4.140625 45 L 70.890625 45 L 70.890625 48 L 4.140625 48 Z M 4.140625 45 " clip-rule="nonzero"/></clipPath></defs><path fill="#ffffff" d="M 43.386719 42.015625 C 43 42.015625 42.648438 41.785156 42.492188 41.429688 C 39.15625 33.738281 33.523438 28.894531 27.421875 28.476562 C 21.703125 28.082031 16.339844 31.492188 12.328125 38.078125 C 12.050781 38.539062 11.449219 38.683594 10.988281 38.402344 C 10.53125 38.125 10.382812 37.523438 10.664062 37.0625 C 12.894531 33.40625 15.535156 30.632812 18.519531 28.828125 C 21.347656 27.113281 24.472656 26.320312 27.554688 26.53125 C 33.734375 26.957031 39.433594 31.304688 43.15625 38.3125 C 44.367188 34.613281 47.242188 27.765625 52.726562 24.109375 C 53.175781 23.8125 53.78125 23.933594 54.078125 24.378906 C 54.375 24.828125 54.257812 25.433594 53.808594 25.730469 C 46.867188 30.359375 44.359375 41.144531 44.335938 41.253906 C 44.242188 41.664062 43.898438 41.96875 43.476562 42.011719 C 43.449219 42.015625 43.417969 42.015625 43.386719 42.015625 Z M 43.386719 42.015625 " fill-opacity="1" fill-rule="nonzero"/><path fill="#ffffff" d="M 59.578125 25.863281 C 56.082031 25.863281 53.242188 23.019531 53.242188 19.527344 C 53.242188 16.035156 56.085938 13.191406 59.578125 13.191406 C 63.070312 13.191406 65.910156 16.035156 65.910156 19.527344 C 65.910156 23.019531 63.070312 25.863281 59.578125 25.863281 Z M 59.578125 15.136719 C 57.15625 15.136719 55.191406 17.105469 55.191406 19.523438 C 55.191406 21.945312 57.160156 23.910156 59.578125 23.910156 C 61.996094 23.910156 63.964844 21.945312 63.964844 19.523438 C 63.964844 17.105469 61.996094 15.136719 59.578125 15.136719 Z M 59.578125 15.136719 " fill-opacity="1" fill-rule="nonzero"/><g clip-path="url(#0b676804a9)"><path fill="#ffffff" d="M 64.410156 57.292969 L 10.585938 57.292969 C 7.035156 57.292969 4.144531 54.40625 4.144531 50.851562 L 4.144531 14.410156 C 4.144531 10.859375 7.035156 7.96875 10.585938 7.96875 L 28.289062 7.96875 C 28.570312 7.96875 28.839844 8.09375 29.027344 8.304688 C 29.210938 8.519531 29.292969 8.800781 29.253906 9.082031 C 29.195312 9.480469 29.167969 9.886719 29.167969 10.289062 C 29.167969 14.886719 32.90625 18.625 37.5 18.625 C 42.097656 18.625 45.835938 14.886719 45.835938 10.289062 C 45.835938 9.886719 45.808594 9.480469 45.75 9.082031 C 45.707031 8.804688 45.792969 8.519531 45.976562 8.304688 C 46.160156 8.09375 46.429688 7.96875 46.710938 7.96875 L 64.410156 7.96875 C 67.964844 7.96875 70.851562 10.859375 70.851562 14.410156 L 70.851562 50.851562 C 70.851562 54.40625 67.964844 57.292969 64.410156 57.292969 Z M 10.585938 9.917969 C 8.109375 9.917969 6.09375 11.933594 6.09375 14.410156 L 6.09375 50.855469 C 6.09375 53.332031 8.109375 55.347656 10.585938 55.347656 L 64.410156 55.347656 C 66.890625 55.347656 68.90625 53.332031 68.90625 50.855469 L 68.90625 14.410156 C 68.90625 11.933594 66.890625 9.917969 64.410156 9.917969 L 47.773438 9.917969 C 47.78125 10.042969 47.78125 10.167969 47.78125 10.289062 C 47.78125 15.960938 43.167969 20.574219 37.496094 20.574219 C 31.828125 20.574219 27.214844 15.960938 27.214844 10.289062 C 27.214844 10.167969 27.214844 10.042969 27.222656 9.917969 Z M 10.585938 9.917969 " fill-opacity="1" fill-rule="nonzero"/></g><g clip-path="url(#d17e3d0670)"><path fill="#ffffff" d="M 69.878906 47.621094 L 5.121094 47.621094 C 4.582031 47.621094 4.144531 47.1875 4.144531 46.648438 C 4.144531 46.109375 4.582031 45.675781 5.121094 45.675781 L 69.878906 45.675781 C 70.414062 45.675781 70.851562 46.109375 70.851562 46.648438 C 70.851562 47.1875 70.417969 47.621094 69.878906 47.621094 Z M 69.878906 47.621094 " fill-opacity="1" fill-rule="nonzero"/></g><path fill="#ffffff" d="M 44.199219 68.265625 L 30.804688 68.265625 C 30.265625 68.265625 29.828125 67.828125 29.828125 67.289062 L 29.828125 56.320312 C 29.828125 55.78125 30.265625 55.347656 30.804688 55.347656 L 44.199219 55.347656 C 44.734375 55.347656 45.171875 55.78125 45.171875 56.320312 L 45.171875 67.289062 C 45.171875 67.828125 44.734375 68.265625 44.199219 68.265625 Z M 31.773438 66.316406 L 43.222656 66.316406 L 43.222656 57.292969 L 31.773438 57.292969 Z M 31.773438 66.316406 " fill-opacity="1" fill-rule="nonzero"/><path fill="#ffffff" d="M 51.484375 75.011719 L 23.515625 75.011719 C 23.226562 75.011719 22.949219 74.882812 22.765625 74.660156 C 22.582031 74.433594 22.503906 74.144531 22.558594 73.855469 L 25.074219 60.367188 C 25.160156 59.902344 25.5625 59.570312 26.03125 59.570312 L 30.804688 59.570312 C 31.339844 59.570312 31.777344 60.007812 31.777344 60.542969 L 31.777344 66.316406 L 43.222656 66.316406 L 43.222656 60.542969 C 43.222656 60.007812 43.660156 59.570312 44.199219 59.570312 L 48.96875 59.570312 C 49.4375 59.570312 49.839844 59.90625 49.925781 60.367188 L 52.445312 73.855469 C 52.496094 74.140625 52.421875 74.433594 52.234375 74.660156 C 52.050781 74.882812 51.777344 75.011719 51.484375 75.011719 Z M 24.6875 73.0625 L 50.3125 73.0625 L 48.160156 61.519531 L 45.171875 61.519531 L 45.171875 67.289062 C 45.171875 67.828125 44.734375 68.265625 44.199219 68.265625 L 30.804688 68.265625 C 30.265625 68.265625 29.828125 67.828125 29.828125 67.289062 L 29.828125 61.519531 L 26.84375 61.519531 Z M 24.6875 73.0625 " fill-opacity="1" fill-rule="nonzero"/><path fill="#ffffff" d="M 37.5 54.84375 C 35.648438 54.84375 34.144531 53.335938 34.144531 51.484375 C 34.144531 49.632812 35.648438 48.128906 37.5 48.128906 C 39.351562 48.128906 40.855469 49.636719 40.855469 51.484375 C 40.855469 53.335938 39.351562 54.84375 37.5 54.84375 Z M 37.5 50.074219 C 36.722656 50.074219 36.089844 50.707031 36.089844 51.484375 C 36.089844 52.261719 36.722656 52.890625 37.5 52.890625 C 38.277344 52.890625 38.910156 52.261719 38.910156 51.484375 C 38.910156 50.707031 38.277344 50.074219 37.5 50.074219 Z M 37.5 50.074219 " fill-opacity="1" fill-rule="nonzero"/><path fill="#ffffff" d="M 34.578125 15.949219 C 34.40625 15.949219 34.230469 15.902344 34.078125 15.808594 C 33.78125 15.632812 33.601562 15.316406 33.601562 14.976562 L 33.601562 5.605469 C 33.601562 5.261719 33.78125 4.945312 34.078125 4.769531 C 34.371094 4.59375 34.738281 4.585938 35.039062 4.746094 L 43.761719 9.433594 C 44.078125 9.601562 44.273438 9.933594 44.273438 10.289062 C 44.273438 10.648438 44.078125 10.980469 43.761719 11.148438 L 35.039062 15.832031 C 34.894531 15.910156 34.734375 15.949219 34.578125 15.949219 Z M 35.550781 7.234375 L 35.550781 13.347656 L 41.242188 10.292969 Z M 35.550781 7.234375 " fill-opacity="1" fill-rule="nonzero"/><path fill="#ffffff" d="M 37.5 20.574219 C 31.828125 20.574219 27.214844 15.960938 27.214844 10.289062 C 27.214844 4.621094 31.828125 0.0078125 37.5 0.0078125 C 43.171875 0.0078125 47.785156 4.621094 47.785156 10.289062 C 47.785156 15.960938 43.171875 20.574219 37.5 20.574219 Z M 37.5 1.953125 C 32.902344 1.953125 29.164062 5.695312 29.164062 10.289062 C 29.164062 14.886719 32.902344 18.625 37.5 18.625 C 42.097656 18.625 45.835938 14.886719 45.835938 10.289062 C 45.835938 5.695312 42.097656 1.953125 37.5 1.953125 Z M 37.5 1.953125 " fill-opacity="1" fill-rule="nonzero"/></svg>