<svg xmlns="http://www.w3.org/2000/svg" xmlns:xlink="http://www.w3.org/1999/xlink" width="100" zoomAndPan="magnify" viewBox="0 0 75 74.999997" height="100" preserveAspectRatio="xMidYMid meet" version="1.0"><defs><clipPath id="489f3ad024"><path d="M 5.484375 0 L 69.234375 0 L 69.234375 75 L 5.484375 75 Z M 5.484375 0 " clip-rule="nonzero"/></clipPath></defs><g clip-path="url(#489f3ad024)"><path fill="#ffffff" d="M 37.5 74.980469 C 37.285156 74.980469 37.074219 74.9375 36.875 74.855469 C 6.09375 61.363281 5.5 15.074219 5.5 13.105469 C 5.5 12.898438 5.539062 12.699219 5.617188 12.507812 C 5.699219 12.316406 5.8125 12.148438 5.957031 12 C 6.105469 11.855469 6.273438 11.742188 6.464844 11.664062 C 6.65625 11.582031 6.855469 11.542969 7.0625 11.542969 C 22.476562 11.464844 36.234375 0.472656 36.359375 0.363281 C 36.644531 0.136719 36.964844 0.0195312 37.328125 0.0195312 L 37.671875 0.0195312 C 38.039062 0.015625 38.367188 0.132812 38.65625 0.363281 C 38.78125 0.472656 52.539062 11.464844 67.953125 11.542969 C 68.160156 11.542969 68.359375 11.582031 68.550781 11.664062 C 68.742188 11.742188 68.910156 11.855469 69.058594 12 C 69.203125 12.148438 69.316406 12.316406 69.398438 12.507812 C 69.476562 12.699219 69.515625 12.898438 69.515625 13.105469 C 69.515625 15.074219 68.921875 61.363281 38.140625 74.855469 C 37.933594 74.941406 37.722656 74.980469 37.5 74.980469 Z M 8.671875 14.621094 C 9.046875 22.648438 12.167969 60.035156 37.5 71.703125 C 62.832031 60.035156 65.953125 22.648438 66.328125 14.621094 C 52.507812 13.949219 40.625 5.796875 37.5 3.421875 C 34.375 5.796875 22.492188 13.949219 8.671875 14.621094 Z M 8.671875 14.621094 " fill-opacity="1" fill-rule="nonzero"/></g><path fill="#ffffff" d="M 37.5 64.863281 C 37.28125 64.867188 37.074219 64.824219 36.875 64.738281 C 14.496094 54.945312 14.074219 21.398438 14.074219 19.976562 C 14.074219 19.769531 14.113281 19.570312 14.191406 19.378906 C 14.273438 19.1875 14.386719 19.019531 14.53125 18.871094 C 14.679688 18.726562 14.847656 18.613281 15.039062 18.535156 C 15.230469 18.457031 15.429688 18.414062 15.636719 18.414062 C 26.566406 18.414062 36.3125 10.605469 36.40625 10.480469 C 36.695312 10.25 37.023438 10.136719 37.390625 10.136719 L 37.640625 10.136719 C 38.007812 10.136719 38.335938 10.25 38.625 10.480469 C 38.71875 10.558594 48.480469 18.289062 59.394531 18.414062 C 59.601562 18.414062 59.800781 18.457031 59.992188 18.535156 C 60.183594 18.613281 60.351562 18.726562 60.5 18.871094 C 60.644531 19.019531 60.757812 19.1875 60.839844 19.378906 C 60.917969 19.570312 60.957031 19.769531 60.957031 19.976562 C 60.957031 21.398438 60.535156 54.945312 38.15625 64.738281 C 37.945312 64.832031 37.730469 64.871094 37.5 64.863281 Z M 17.199219 21.476562 C 17.554688 27.957031 20.070312 53.398438 37.5 61.597656 C 54.914062 53.398438 57.398438 27.957031 57.800781 21.476562 C 48.292969 20.867188 40.15625 15.480469 37.5 13.558594 C 34.890625 15.480469 26.753906 20.867188 17.199219 21.476562 Z M 17.199219 21.476562 " fill-opacity="1" fill-rule="nonzero"/><path fill="#ffffff" d="M 44.199219 36.1875 L 30.800781 36.1875 C 30.59375 36.1875 30.394531 36.148438 30.203125 36.070312 C 30.011719 35.988281 29.84375 35.878906 29.695312 35.730469 C 29.550781 35.585938 29.4375 35.414062 29.355469 35.222656 C 29.277344 35.03125 29.238281 34.832031 29.238281 34.625 L 29.238281 31.503906 C 29.242188 30.972656 29.300781 30.445312 29.40625 29.925781 C 29.515625 29.40625 29.671875 28.902344 29.878906 28.414062 C 30.085938 27.925781 30.339844 27.460938 30.636719 27.019531 C 30.933594 26.582031 31.273438 26.171875 31.648438 25.800781 C 32.027344 25.425781 32.4375 25.09375 32.878906 24.800781 C 33.320312 24.507812 33.789062 24.257812 34.277344 24.054688 C 34.769531 23.855469 35.277344 23.703125 35.796875 23.597656 C 36.316406 23.496094 36.84375 23.445312 37.375 23.445312 L 37.625 23.445312 C 38.160156 23.445312 38.6875 23.496094 39.210938 23.601562 C 39.734375 23.703125 40.246094 23.859375 40.738281 24.0625 C 41.230469 24.269531 41.703125 24.519531 42.144531 24.816406 C 42.589844 25.113281 43 25.449219 43.378906 25.828125 C 43.757812 26.207031 44.09375 26.617188 44.390625 27.058594 C 44.6875 27.503906 44.9375 27.972656 45.140625 28.46875 C 45.347656 28.960938 45.5 29.46875 45.605469 29.992188 C 45.710938 30.519531 45.761719 31.046875 45.761719 31.582031 L 45.761719 34.703125 C 45.75 34.90625 45.703125 35.097656 45.621094 35.277344 C 45.539062 35.460938 45.421875 35.621094 45.277344 35.757812 C 45.132812 35.898438 44.964844 36.003906 44.78125 36.078125 C 44.59375 36.152344 44.398438 36.1875 44.199219 36.1875 Z M 32.363281 33.066406 L 42.636719 33.066406 L 42.636719 31.503906 C 42.632812 31.175781 42.597656 30.855469 42.527344 30.535156 C 42.460938 30.21875 42.363281 29.90625 42.234375 29.609375 C 42.105469 29.308594 41.949219 29.023438 41.765625 28.753906 C 41.582031 28.484375 41.375 28.238281 41.140625 28.007812 C 40.910156 27.78125 40.65625 27.574219 40.386719 27.394531 C 40.113281 27.21875 39.828125 27.066406 39.527344 26.941406 C 39.222656 26.816406 38.914062 26.726562 38.59375 26.664062 C 38.273438 26.597656 37.949219 26.566406 37.625 26.566406 L 37.375 26.566406 C 37.046875 26.566406 36.71875 26.601562 36.398438 26.664062 C 36.074219 26.726562 35.761719 26.824219 35.457031 26.949219 C 35.152344 27.074219 34.863281 27.230469 34.589844 27.414062 C 34.316406 27.59375 34.0625 27.804688 33.832031 28.035156 C 33.597656 28.269531 33.390625 28.523438 33.207031 28.796875 C 33.023438 29.070312 32.871094 29.359375 32.742188 29.664062 C 32.617188 29.964844 32.523438 30.28125 32.457031 30.601562 C 32.394531 30.925781 32.363281 31.25 32.363281 31.582031 Z M 32.363281 33.066406 " fill-opacity="1" fill-rule="nonzero"/><path fill="#ffffff" d="M 45.871094 49.105469 L 29.128906 49.105469 C 28.921875 49.105469 28.722656 49.0625 28.53125 48.984375 C 28.339844 48.90625 28.171875 48.792969 28.023438 48.644531 C 27.878906 48.5 27.765625 48.332031 27.6875 48.140625 C 27.605469 47.949219 27.566406 47.75 27.566406 47.542969 L 27.566406 34.625 C 27.566406 34.417969 27.605469 34.21875 27.6875 34.027344 C 27.765625 33.835938 27.878906 33.667969 28.023438 33.523438 C 28.171875 33.375 28.339844 33.261719 28.53125 33.183594 C 28.722656 33.105469 28.921875 33.066406 29.128906 33.066406 L 45.871094 33.066406 C 46.078125 33.066406 46.277344 33.105469 46.46875 33.183594 C 46.660156 33.261719 46.828125 33.375 46.976562 33.523438 C 47.121094 33.667969 47.234375 33.835938 47.3125 34.027344 C 47.394531 34.21875 47.433594 34.417969 47.433594 34.625 L 47.433594 47.542969 C 47.433594 47.75 47.394531 47.949219 47.3125 48.140625 C 47.234375 48.332031 47.121094 48.5 46.976562 48.644531 C 46.828125 48.792969 46.660156 48.90625 46.46875 48.984375 C 46.277344 49.0625 46.078125 49.105469 45.871094 49.105469 Z M 30.691406 45.980469 L 44.308594 45.980469 L 44.308594 36.1875 L 30.691406 36.1875 Z M 30.691406 45.980469 " fill-opacity="1" fill-rule="nonzero"/></svg>