<svg xmlns="http://www.w3.org/2000/svg" xmlns:xlink="http://www.w3.org/1999/xlink" width="100" zoomAndPan="magnify" viewBox="0 0 75 74.999997" height="100" preserveAspectRatio="xMidYMid meet" version="1.0"><defs><clipPath id="b4c8355d73"><path d="M 49 39 L 58 39 L 58 73.574219 L 49 73.574219 Z M 49 39 " clip-rule="nonzero"/></clipPath><clipPath id="ac44fe1f79"><path d="M 33 33 L 42 33 L 42 73.574219 L 33 73.574219 Z M 33 33 " clip-rule="nonzero"/></clipPath><clipPath id="dff8584e96"><path d="M 17 44 L 26 44 L 26 73.574219 L 17 73.574219 Z M 17 44 " clip-rule="nonzero"/></clipPath><clipPath id="385715d3ed"><path d="M 1.574219 31 L 10 31 L 10 73.574219 L 1.574219 73.574219 Z M 1.574219 31 " clip-rule="nonzero"/></clipPath><clipPath id="45d449728b"><path d="M 65 19 L 73.574219 19 L 73.574219 73.574219 L 65 73.574219 Z M 65 19 " clip-rule="nonzero"/></clipPath><clipPath id="04cb2a794e"><path d="M 67 1.574219 L 72 1.574219 L 72 7 L 67 7 Z M 67 1.574219 " clip-rule="nonzero"/></clipPath></defs><g clip-path="url(#b4c8355d73)"><path fill="#ffffff" d="M 49.472656 39.566406 L 57.453125 39.566406 L 57.453125 73.496094 L 49.472656 73.496094 Z M 49.472656 39.566406 " fill-opacity="1" fill-rule="nonzero"/></g><g clip-path="url(#ac44fe1f79)"><path fill="#ffffff" d="M 33.503906 33.582031 L 41.488281 33.582031 L 41.488281 73.496094 L 33.503906 73.496094 Z M 33.503906 33.582031 " fill-opacity="1" fill-rule="nonzero"/></g><g clip-path="url(#dff8584e96)"><path fill="#ffffff" d="M 17.539062 44.890625 L 25.523438 44.890625 L 25.523438 73.496094 L 17.539062 73.496094 Z M 17.539062 44.890625 " fill-opacity="1" fill-rule="nonzero"/></g><g clip-path="url(#385715d3ed)"><path fill="#ffffff" d="M 1.574219 31.585938 L 9.554688 31.585938 L 9.554688 73.496094 L 1.574219 73.496094 Z M 1.574219 31.585938 " fill-opacity="1" fill-rule="nonzero"/></g><g clip-path="url(#45d449728b)"><path fill="#ffffff" d="M 65.4375 19.96875 L 73.421875 19.96875 L 73.421875 73.496094 L 65.4375 73.496094 Z M 65.4375 19.96875 " fill-opacity="1" fill-rule="nonzero"/></g><path fill="#ffffff" d="M 21.828125 30.269531 L 4.929688 16.347656 L 6.199219 14.808594 L 21.898438 27.746094 L 37.332031 16.429688 L 53.789062 22.261719 L 68.648438 3.464844 L 70.210938 4.703125 L 54.46875 24.621094 L 37.660156 18.664062 Z M 21.828125 30.269531 " fill-opacity="1" fill-rule="nonzero"/><path fill="#ffffff" d="M 7.164062 15.347656 C 7.199219 15.550781 7.195312 15.757812 7.152344 15.960938 C 7.105469 16.164062 7.023438 16.351562 6.90625 16.523438 C 6.789062 16.695312 6.644531 16.835938 6.46875 16.945312 C 6.296875 17.058594 6.109375 17.128906 5.90625 17.164062 C 5.703125 17.199219 5.5 17.195312 5.300781 17.148438 C 5.101562 17.101562 4.914062 17.019531 4.746094 16.894531 C 4.578125 16.773438 4.4375 16.625 4.328125 16.449219 C 4.21875 16.269531 4.144531 16.078125 4.109375 15.875 C 4.074219 15.667969 4.078125 15.460938 4.121094 15.257812 C 4.167969 15.054688 4.25 14.867188 4.367188 14.695312 C 4.484375 14.523438 4.628906 14.382812 4.804688 14.273438 C 4.976562 14.160156 5.164062 14.089844 5.367188 14.054688 C 5.570312 14.019531 5.773438 14.023438 5.972656 14.070312 C 6.175781 14.117188 6.359375 14.203125 6.527344 14.324219 C 6.695312 14.445312 6.835938 14.59375 6.945312 14.769531 C 7.054688 14.949219 7.128906 15.140625 7.164062 15.347656 Z M 7.164062 15.347656 " fill-opacity="1" fill-rule="nonzero"/><path fill="#ffffff" d="M 5.648438 17.988281 L 5.640625 17.988281 C 5.160156 17.976562 4.726562 17.835938 4.332031 17.566406 C 3.941406 17.296875 3.652344 16.9375 3.472656 16.496094 C 3.292969 16.054688 3.25 15.601562 3.339844 15.132812 C 3.433594 14.664062 3.644531 14.257812 3.980469 13.917969 C 4.445312 13.484375 4.996094 13.253906 5.632812 13.234375 C 6.109375 13.242188 6.546875 13.382812 6.941406 13.652344 C 7.335938 13.925781 7.621094 14.28125 7.800781 14.722656 C 7.980469 15.164062 8.027344 15.621094 7.933594 16.089844 C 7.84375 16.558594 7.628906 16.964844 7.292969 17.304688 C 6.839844 17.761719 6.289062 17.988281 5.648438 17.988281 Z M 5.625 14.832031 C 5.421875 14.828125 5.25 14.902344 5.109375 15.046875 C 4.875 15.292969 4.820312 15.574219 4.945312 15.886719 C 5.070312 16.203125 5.300781 16.371094 5.640625 16.390625 C 5.84375 16.390625 6.015625 16.320312 6.15625 16.175781 C 6.398438 15.929688 6.457031 15.648438 6.328125 15.328125 C 6.203125 15.007812 5.96875 14.84375 5.625 14.832031 Z M 5.625 14.832031 " fill-opacity="1" fill-rule="nonzero"/><path fill="#ffffff" d="M 23.460938 28.675781 C 23.5 28.878906 23.492188 29.085938 23.449219 29.289062 C 23.40625 29.492188 23.324219 29.679688 23.207031 29.851562 C 23.085938 30.023438 22.941406 30.164062 22.769531 30.273438 C 22.59375 30.386719 22.40625 30.460938 22.203125 30.496094 C 22 30.527344 21.800781 30.523438 21.597656 30.476562 C 21.398438 30.429688 21.214844 30.347656 21.046875 30.226562 C 20.875 30.105469 20.738281 29.953125 20.628906 29.777344 C 20.515625 29.601562 20.445312 29.40625 20.40625 29.203125 C 20.371094 28.996094 20.375 28.789062 20.421875 28.585938 C 20.464844 28.382812 20.546875 28.195312 20.664062 28.023438 C 20.785156 27.851562 20.929688 27.710938 21.101562 27.601562 C 21.277344 27.488281 21.464844 27.417969 21.667969 27.382812 C 21.871094 27.347656 22.070312 27.351562 22.273438 27.398438 C 22.472656 27.445312 22.65625 27.53125 22.824219 27.652344 C 22.992188 27.773438 23.132812 27.921875 23.242188 28.097656 C 23.355469 28.277344 23.425781 28.46875 23.460938 28.675781 Z M 23.460938 28.675781 " fill-opacity="1" fill-rule="nonzero"/><path fill="#ffffff" d="M 21.945312 31.316406 L 21.9375 31.316406 C 21.460938 31.304688 21.023438 31.167969 20.632812 30.898438 C 20.238281 30.628906 19.949219 30.273438 19.769531 29.832031 C 19.589844 29.386719 19.546875 28.933594 19.636719 28.464844 C 19.730469 27.996094 19.945312 27.59375 20.277344 27.25 C 20.722656 26.765625 21.273438 26.535156 21.933594 26.566406 C 22.410156 26.578125 22.84375 26.71875 23.238281 26.988281 C 23.632812 27.261719 23.917969 27.617188 24.097656 28.058594 C 24.277344 28.5 24.324219 28.957031 24.230469 29.425781 C 24.136719 29.894531 23.925781 30.296875 23.589844 30.640625 C 23.136719 31.09375 22.585938 31.316406 21.945312 31.316406 Z M 21.929688 28.15625 C 21.726562 28.160156 21.554688 28.230469 21.414062 28.375 C 21.179688 28.621094 21.125 28.902344 21.25 29.214844 C 21.375 29.53125 21.605469 29.699219 21.945312 29.71875 C 22.148438 29.71875 22.320312 29.648438 22.460938 29.503906 C 22.695312 29.257812 22.75 28.976562 22.625 28.660156 C 22.5 28.34375 22.265625 28.179688 21.929688 28.15625 Z M 21.929688 28.15625 " fill-opacity="1" fill-rule="nonzero"/><path fill="#ffffff" d="M 39.058594 17.222656 C 39.09375 17.429688 39.089844 17.632812 39.042969 17.839844 C 39 18.042969 38.917969 18.230469 38.800781 18.402344 C 38.683594 18.570312 38.535156 18.710938 38.363281 18.824219 C 38.1875 18.933594 38 19.007812 37.800781 19.042969 C 37.597656 19.078125 37.394531 19.070312 37.195312 19.027344 C 36.992188 18.980469 36.808594 18.894531 36.640625 18.773438 C 36.472656 18.652344 36.332031 18.503906 36.222656 18.324219 C 36.113281 18.148438 36.039062 17.957031 36.003906 17.75 C 35.96875 17.542969 35.972656 17.339844 36.015625 17.132812 C 36.0625 16.929688 36.140625 16.742188 36.261719 16.574219 C 36.378906 16.402344 36.523438 16.261719 36.699219 16.148438 C 36.871094 16.039062 37.058594 15.964844 37.261719 15.929688 C 37.464844 15.894531 37.664062 15.902344 37.867188 15.949219 C 38.066406 15.996094 38.25 16.078125 38.421875 16.199219 C 38.589844 16.320312 38.726562 16.46875 38.839844 16.648438 C 38.949219 16.824219 39.023438 17.015625 39.058594 17.222656 Z M 39.058594 17.222656 " fill-opacity="1" fill-rule="nonzero"/><path fill="#ffffff" d="M 37.539062 19.863281 L 37.53125 19.863281 C 37.054688 19.851562 36.617188 19.710938 36.226562 19.441406 C 35.832031 19.171875 35.546875 18.8125 35.367188 18.371094 C 35.1875 17.929688 35.140625 17.472656 35.234375 17.003906 C 35.328125 16.539062 35.539062 16.132812 35.875 15.792969 C 36.328125 15.335938 36.878906 15.109375 37.519531 15.109375 L 37.527344 15.109375 C 38.007812 15.117188 38.441406 15.257812 38.839844 15.527344 C 39.234375 15.796875 39.519531 16.15625 39.703125 16.597656 C 39.882812 17.042969 39.925781 17.496094 39.832031 17.96875 C 39.738281 18.4375 39.523438 18.839844 39.183594 19.179688 C 38.730469 19.636719 38.183594 19.863281 37.539062 19.863281 Z M 37.539062 18.265625 C 37.742188 18.265625 37.914062 18.195312 38.054688 18.050781 C 38.289062 17.804688 38.34375 17.523438 38.21875 17.207031 C 38.09375 16.890625 37.863281 16.726562 37.523438 16.703125 C 37.320312 16.703125 37.148438 16.777344 37.007812 16.921875 C 36.773438 17.167969 36.71875 17.449219 36.84375 17.761719 C 36.96875 18.078125 37.199219 18.246094 37.539062 18.265625 Z M 37.539062 18.265625 " fill-opacity="1" fill-rule="nonzero"/><path fill="#ffffff" d="M 55.582031 23.039062 C 55.617188 23.246094 55.613281 23.449219 55.570312 23.65625 C 55.523438 23.859375 55.445312 24.046875 55.324219 24.214844 C 55.207031 24.386719 55.0625 24.527344 54.886719 24.640625 C 54.714844 24.75 54.527344 24.824219 54.324219 24.859375 C 54.121094 24.894531 53.921875 24.886719 53.71875 24.839844 C 53.519531 24.792969 53.335938 24.710938 53.164062 24.589844 C 52.996094 24.46875 52.859375 24.320312 52.746094 24.140625 C 52.636719 23.964844 52.5625 23.773438 52.527344 23.566406 C 52.492188 23.359375 52.496094 23.15625 52.542969 22.949219 C 52.585938 22.746094 52.667969 22.558594 52.785156 22.386719 C 52.902344 22.21875 53.050781 22.078125 53.222656 21.964844 C 53.394531 21.855469 53.585938 21.78125 53.785156 21.746094 C 53.988281 21.710938 54.191406 21.71875 54.390625 21.761719 C 54.59375 21.808594 54.777344 21.894531 54.945312 22.015625 C 55.113281 22.136719 55.253906 22.285156 55.363281 22.464844 C 55.472656 22.640625 55.546875 22.832031 55.582031 23.039062 Z M 55.582031 23.039062 " fill-opacity="1" fill-rule="nonzero"/><path fill="#ffffff" d="M 54.066406 25.679688 L 54.058594 25.679688 C 53.582031 25.667969 53.144531 25.527344 52.753906 25.257812 C 52.359375 24.988281 52.074219 24.628906 51.894531 24.1875 C 51.710938 23.746094 51.667969 23.289062 51.761719 22.820312 C 51.851562 22.351562 52.066406 21.949219 52.402344 21.609375 C 52.855469 21.152344 53.402344 20.925781 54.046875 20.925781 L 54.054688 20.925781 C 54.53125 20.933594 54.964844 21.074219 55.359375 21.34375 C 55.753906 21.613281 56.042969 21.96875 56.222656 22.410156 C 56.402344 22.855469 56.445312 23.308594 56.355469 23.777344 C 56.261719 24.246094 56.046875 24.648438 55.710938 24.988281 C 55.261719 25.449219 54.710938 25.679688 54.066406 25.679688 Z M 54.046875 22.523438 C 53.84375 22.523438 53.671875 22.59375 53.53125 22.738281 C 53.296875 22.984375 53.242188 23.265625 53.367188 23.582031 C 53.492188 23.894531 53.722656 24.0625 54.0625 24.082031 C 54.265625 24.082031 54.4375 24.011719 54.578125 23.867188 C 54.8125 23.621094 54.867188 23.339844 54.742188 23.023438 C 54.617188 22.710938 54.386719 22.542969 54.046875 22.523438 Z M 54.046875 22.523438 " fill-opacity="1" fill-rule="nonzero"/><path fill="#ffffff" d="M 70.921875 3.699219 C 70.957031 3.90625 70.953125 4.113281 70.910156 4.316406 C 70.863281 4.519531 70.78125 4.707031 70.664062 4.878906 C 70.546875 5.046875 70.402344 5.191406 70.226562 5.300781 C 70.054688 5.410156 69.867188 5.484375 69.664062 5.519531 C 69.460938 5.554688 69.257812 5.550781 69.058594 5.503906 C 68.859375 5.457031 68.671875 5.371094 68.503906 5.25 C 68.335938 5.128906 68.195312 4.980469 68.085938 4.804688 C 67.976562 4.625 67.902344 4.433594 67.867188 4.226562 C 67.832031 4.019531 67.835938 3.816406 67.882812 3.613281 C 67.925781 3.40625 68.007812 3.21875 68.125 3.050781 C 68.242188 2.878906 68.390625 2.738281 68.5625 2.628906 C 68.734375 2.515625 68.921875 2.441406 69.125 2.40625 C 69.328125 2.371094 69.53125 2.378906 69.730469 2.425781 C 69.933594 2.472656 70.117188 2.554688 70.285156 2.675781 C 70.453125 2.796875 70.59375 2.949219 70.703125 3.125 C 70.8125 3.300781 70.886719 3.492188 70.921875 3.699219 Z M 70.921875 3.699219 " fill-opacity="1" fill-rule="nonzero"/><g clip-path="url(#04cb2a794e)"><path fill="#ffffff" d="M 69.40625 6.339844 L 69.398438 6.339844 C 68.921875 6.328125 68.484375 6.1875 68.09375 5.917969 C 67.699219 5.648438 67.414062 5.292969 67.230469 4.847656 C 67.050781 4.40625 67.007812 3.953125 67.101562 3.484375 C 67.191406 3.015625 67.40625 2.609375 67.742188 2.269531 C 68.195312 1.8125 68.742188 1.585938 69.386719 1.585938 L 69.394531 1.585938 C 69.871094 1.59375 70.308594 1.734375 70.703125 2.003906 C 71.097656 2.273438 71.386719 2.632812 71.566406 3.074219 C 71.746094 3.519531 71.792969 3.976562 71.699219 4.445312 C 71.601562 4.914062 71.386719 5.316406 71.050781 5.65625 C 70.597656 6.113281 70.046875 6.339844 69.40625 6.339844 Z M 69.386719 3.183594 C 69.183594 3.183594 69.011719 3.253906 68.871094 3.398438 C 68.636719 3.644531 68.582031 3.925781 68.707031 4.242188 C 68.832031 4.558594 69.0625 4.726562 69.402344 4.746094 C 69.605469 4.746094 69.777344 4.671875 69.917969 4.527344 C 70.160156 4.285156 70.21875 4 70.089844 3.683594 C 69.964844 3.363281 69.730469 3.195312 69.386719 3.183594 Z M 69.386719 3.183594 " fill-opacity="1" fill-rule="nonzero"/></g></svg>