<svg xmlns="http://www.w3.org/2000/svg" xmlns:xlink="http://www.w3.org/1999/xlink" width="100" zoomAndPan="magnify" viewBox="0 0 75 74.999997" height="100" preserveAspectRatio="xMidYMid meet" version="1.0"><defs><clipPath id="839edc0249"><path d="M 12.089844 2.011719 L 64.589844 2.011719 L 64.589844 73 L 12.089844 73 Z M 12.089844 2.011719 " clip-rule="nonzero"/></clipPath></defs><g clip-path="url(#839edc0249)"><path fill="#ffffff" d="M 64.589844 67.261719 L 64.589844 7.726562 C 64.589844 4.625 62.066406 2.101562 58.964844 2.101562 L 17.523438 2.101562 C 14.421875 2.101562 11.898438 4.625 11.898438 7.726562 L 11.898438 67.261719 C 11.898438 70.363281 14.421875 72.886719 17.523438 72.886719 L 58.964844 72.886719 C 62.066406 72.886719 64.589844 70.363281 64.589844 67.261719 Z M 17.523438 69.742188 C 16.15625 69.742188 15.046875 68.628906 15.046875 67.261719 L 15.046875 15.605469 L 53.777344 15.605469 C 54.425781 15.605469 54.957031 15.074219 54.957031 14.425781 C 54.957031 13.773438 54.425781 13.246094 53.777344 13.246094 L 15.046875 13.246094 L 15.046875 7.726562 C 15.046875 6.359375 16.15625 5.25 17.523438 5.25 L 58.964844 5.25 C 60.332031 5.25 61.445312 6.359375 61.445312 7.726562 L 61.445312 13.246094 L 56.863281 13.246094 C 56.210938 13.246094 55.683594 13.773438 55.683594 14.425781 C 55.683594 15.074219 56.210938 15.605469 56.863281 15.605469 L 61.445312 15.605469 L 61.445312 67.261719 C 61.445312 68.628906 60.332031 69.742188 58.964844 69.742188 Z M 17.523438 69.742188 " fill-opacity="1" fill-rule="nonzero"/></g><path fill="#ffffff" d="M 41.265625 8.964844 C 41.265625 7.296875 39.910156 5.941406 38.246094 5.941406 C 37.96875 5.941406 37.695312 5.980469 37.429688 6.054688 C 37.011719 6.171875 36.769531 6.605469 36.886719 7.023438 C 37.003906 7.441406 37.4375 7.6875 37.855469 7.570312 C 37.980469 7.535156 38.113281 7.515625 38.246094 7.515625 C 39.042969 7.515625 39.691406 8.164062 39.691406 8.964844 C 39.691406 9.761719 39.042969 10.410156 38.246094 10.410156 C 37.445312 10.410156 36.796875 9.761719 36.796875 8.964844 C 36.796875 8.792969 36.828125 8.628906 36.882812 8.46875 C 37.03125 8.0625 36.820312 7.609375 36.410156 7.464844 C 36.003906 7.316406 35.550781 7.527344 35.40625 7.933594 C 35.285156 8.265625 35.226562 8.609375 35.226562 8.964844 C 35.226562 10.628906 36.578125 11.984375 38.246094 11.984375 C 39.910156 11.984375 41.265625 10.628906 41.265625 8.964844 Z M 41.265625 8.964844 " fill-opacity="1" fill-rule="nonzero"/><path fill="#ffffff" d="M 28.824219 49.589844 C 28.824219 49.605469 28.824219 49.621094 28.824219 49.640625 C 28.824219 50.640625 29.207031 51.582031 29.90625 52.300781 C 30.617188 53.027344 31.570312 53.4375 32.589844 53.449219 C 34.691406 53.476562 36.425781 51.789062 36.449219 49.683594 C 36.472656 47.542969 34.789062 45.851562 32.6875 45.824219 C 31.667969 45.8125 30.707031 46.195312 29.976562 46.90625 C 29.246094 47.617188 28.839844 48.570312 28.824219 49.589844 Z M 28.824219 49.589844 " fill-opacity="1" fill-rule="nonzero"/><path fill="#ffffff" d="M 51.609375 32.867188 C 51.609375 31.871094 51.234375 30.886719 50.523438 30.160156 C 49.8125 29.429688 48.859375 29.019531 47.84375 29.007812 C 47.402344 29.003906 46.96875 29.070312 46.554688 29.214844 C 46.144531 29.355469 45.925781 29.800781 46.066406 30.210938 C 46.078125 30.246094 46.105469 30.269531 46.121094 30.300781 C 45.945312 30.417969 45.785156 30.554688 45.640625 30.703125 C 45.609375 30.683594 45.589844 30.652344 45.558594 30.632812 C 45.183594 30.417969 44.703125 30.546875 44.484375 30.925781 C 44.164062 31.484375 43.992188 32.125 43.980469 32.773438 C 43.980469 32.789062 43.980469 32.804688 43.980469 32.820312 C 43.980469 33.820312 44.367188 34.761719 45.066406 35.480469 C 45.777344 36.207031 46.726562 36.617188 47.746094 36.628906 C 49.847656 36.65625 51.582031 34.96875 51.609375 32.867188 Z M 51.609375 32.867188 " fill-opacity="1" fill-rule="nonzero"/><path fill="#ffffff" d="M 22.871094 42.019531 C 22.871094 42.039062 22.871094 42.054688 22.871094 42.070312 C 22.871094 43.070312 23.253906 44.011719 23.953125 44.730469 C 24.664062 45.460938 25.617188 45.867188 26.636719 45.882812 C 27.070312 45.886719 27.496094 45.820312 27.902344 45.683594 C 28.3125 45.542969 28.535156 45.097656 28.394531 44.6875 C 28.382812 44.652344 28.359375 44.628906 28.34375 44.597656 C 28.480469 44.507812 28.605469 44.402344 28.722656 44.292969 C 28.75 44.316406 28.769531 44.347656 28.800781 44.367188 C 29.167969 44.601562 29.652344 44.496094 29.886719 44.132812 C 30.273438 43.53125 30.484375 42.835938 30.492188 42.117188 C 30.511719 41.089844 30.121094 40.136719 29.410156 39.40625 C 28.699219 38.679688 27.75 38.269531 26.734375 38.257812 C 25.714844 38.242188 24.75 38.628906 24.023438 39.339844 C 23.292969 40.050781 22.886719 41.003906 22.871094 42.019531 Z M 22.871094 42.019531 " fill-opacity="1" fill-rule="nonzero"/><path fill="#ffffff" d="M 49.285156 46.289062 C 50.300781 46.304688 51.265625 45.917969 51.992188 45.207031 C 52.722656 44.496094 53.132812 43.542969 53.144531 42.527344 C 53.144531 41.515625 52.773438 40.542969 52.0625 39.816406 C 51.351562 39.085938 50.398438 38.675781 49.378906 38.664062 C 47.277344 38.636719 45.546875 40.328125 45.519531 42.429688 C 45.519531 42.445312 45.519531 42.460938 45.519531 42.480469 C 45.519531 43.480469 45.902344 44.421875 46.601562 45.140625 C 47.3125 45.867188 48.265625 46.277344 49.285156 46.289062 Z M 49.285156 46.289062 " fill-opacity="1" fill-rule="nonzero"/><path fill="#ffffff" d="M 55.601562 55.882812 L 52.484375 52.164062 C 55.710938 48.769531 57.515625 44.394531 57.574219 39.753906 C 57.613281 35.105469 55.917969 30.628906 52.742188 27.144531 C 51.324219 25.589844 49.304688 24.773438 47.210938 24.90625 C 45.054688 25.039062 43.09375 26.136719 41.832031 27.921875 C 40.851562 29.304688 39.621094 30.054688 38.367188 30.039062 C 37.109375 30.023438 35.898438 29.242188 34.953125 27.835938 C 33.734375 26.019531 31.804688 24.871094 29.652344 24.683594 C 27.5625 24.5 25.523438 25.265625 24.066406 26.785156 C 20.804688 30.1875 18.976562 34.617188 18.917969 39.265625 C 18.914062 39.34375 18.914062 39.417969 18.914062 39.496094 C 18.914062 49.707031 27.429688 58.078125 38.007812 58.214844 C 41.710938 58.261719 45.300781 57.289062 48.421875 55.414062 L 52.425781 58.964844 C 53.292969 59.746094 54.621094 59.722656 55.457031 58.910156 C 56.296875 58.089844 56.355469 56.753906 55.601562 55.882812 Z M 53.738281 57.5 L 49.253906 53.523438 C 49.214844 53.457031 49.183594 53.386719 49.125 53.332031 L 45.96875 50.484375 C 45.96875 50.484375 45.96875 50.484375 45.964844 50.484375 L 41.660156 46.597656 L 37.148438 42.527344 L 39.609375 40.128906 L 43.511719 44.679688 C 43.796875 45.011719 44.292969 45.050781 44.621094 44.765625 C 44.953125 44.484375 44.992188 43.984375 44.707031 43.65625 L 40.445312 38.6875 C 40.445312 38.671875 40.445312 38.648438 40.445312 38.632812 C 40.441406 38.566406 40.4375 38.5 40.433594 38.425781 C 40.429688 38.367188 40.425781 38.3125 40.421875 38.246094 C 40.414062 38.140625 40.402344 38.03125 40.386719 37.910156 C 40.382812 37.863281 40.375 37.816406 40.367188 37.765625 C 40.351562 37.625 40.328125 37.484375 40.300781 37.332031 C 40.292969 37.289062 40.28125 37.25 40.273438 37.207031 C 40.242188 37.046875 40.207031 36.886719 40.160156 36.71875 C 40.148438 36.671875 40.132812 36.625 40.121094 36.578125 C 40.074219 36.414062 40.023438 36.253906 39.960938 36.085938 C 39.9375 36.023438 39.910156 35.964844 39.882812 35.902344 C 39.820312 35.753906 39.761719 35.605469 39.6875 35.457031 C 39.636719 35.363281 39.574219 35.273438 39.519531 35.179688 C 39.453125 35.070312 39.394531 34.960938 39.316406 34.855469 C 39.175781 34.660156 39.019531 34.472656 38.839844 34.304688 C 37.820312 33.339844 36.617188 33.097656 35.453125 32.863281 C 35.167969 32.804688 34.882812 32.746094 34.601562 32.679688 C 33.96875 32.519531 33.386719 32.238281 32.871094 31.835938 C 32.355469 31.433594 31.933594 30.941406 31.621094 30.367188 C 31.570312 30.277344 31.503906 30.207031 31.425781 30.144531 C 31.40625 30.125 31.382812 30.113281 31.359375 30.097656 C 31.296875 30.054688 31.226562 30.023438 31.152344 30 C 31.136719 29.996094 31.125 29.984375 31.109375 29.980469 C 30.40625 29.21875 29.425781 28.777344 28.363281 28.761719 C 27.347656 28.75 26.382812 29.132812 25.652344 29.84375 C 24.925781 30.554688 24.515625 31.507812 24.503906 32.527344 C 24.492188 33.554688 24.875 34.503906 25.585938 35.234375 C 26.296875 35.960938 27.25 36.371094 28.269531 36.382812 C 28.722656 36.390625 29.167969 36.316406 29.585938 36.167969 C 29.585938 36.183594 29.585938 36.195312 29.585938 36.210938 C 29.585938 36.246094 29.585938 36.289062 29.585938 36.324219 C 29.585938 36.519531 29.597656 36.6875 29.601562 36.871094 C 29.609375 37.074219 29.609375 37.28125 29.625 37.472656 C 29.640625 37.722656 29.671875 37.945312 29.699219 38.171875 C 29.714844 38.28125 29.722656 38.40625 29.738281 38.511719 C 29.792969 38.835938 29.859375 39.136719 29.941406 39.410156 C 29.941406 39.414062 29.941406 39.414062 29.941406 39.417969 C 30.027344 39.691406 30.121094 39.945312 30.234375 40.171875 C 30.238281 40.183594 30.246094 40.191406 30.25 40.203125 C 30.332031 40.363281 30.421875 40.515625 30.515625 40.660156 C 30.550781 40.710938 30.59375 40.761719 30.628906 40.8125 C 30.699219 40.910156 30.773438 41.007812 30.847656 41.097656 C 30.894531 41.152344 30.941406 41.203125 30.988281 41.253906 C 31.066406 41.332031 31.140625 41.414062 31.21875 41.488281 C 31.269531 41.535156 31.320312 41.582031 31.375 41.628906 C 31.457031 41.699219 31.542969 41.769531 31.628906 41.832031 C 31.679688 41.875 31.730469 41.914062 31.78125 41.949219 C 31.878906 42.019531 31.976562 42.082031 32.074219 42.144531 C 32.121094 42.171875 32.164062 42.203125 32.207031 42.230469 C 32.5 42.402344 32.796875 42.546875 33.089844 42.671875 C 33.136719 42.6875 33.179688 42.707031 33.226562 42.722656 C 33.328125 42.765625 33.429688 42.804688 33.53125 42.839844 C 33.585938 42.855469 33.636719 42.875 33.6875 42.890625 C 33.78125 42.921875 33.871094 42.949219 33.960938 42.976562 C 34.015625 42.992188 34.066406 43.007812 34.117188 43.019531 C 34.207031 43.046875 34.292969 43.066406 34.378906 43.089844 C 34.425781 43.097656 34.46875 43.109375 34.515625 43.121094 C 34.605469 43.140625 34.691406 43.160156 34.777344 43.175781 C 34.8125 43.183594 34.847656 43.191406 34.878906 43.199219 C 34.992188 43.21875 35.101562 43.238281 35.199219 43.253906 C 35.203125 43.253906 35.203125 43.253906 35.203125 43.253906 C 35.304688 43.269531 35.398438 43.28125 35.480469 43.292969 C 35.515625 43.296875 35.542969 43.296875 35.574219 43.300781 C 35.605469 43.304688 35.644531 43.308594 35.671875 43.3125 L 39.929688 47.15625 C 39.285156 47.839844 38.914062 48.746094 38.902344 49.714844 C 38.890625 50.734375 39.273438 51.695312 39.984375 52.425781 C 40.695312 53.15625 41.648438 53.566406 42.664062 53.578125 C 43.796875 53.589844 44.863281 53.097656 45.589844 52.261719 L 46.984375 53.519531 C 44.289062 55.082031 41.214844 55.894531 38.039062 55.855469 C 28.683594 55.734375 21.148438 48.339844 21.277344 39.292969 C 21.328125 35.25 22.921875 31.386719 25.769531 28.417969 C 26.730469 27.417969 28.070312 26.914062 29.449219 27.03125 C 30.882812 27.160156 32.175781 27.929688 32.996094 29.148438 C 34.386719 31.21875 36.28125 32.375 38.335938 32.398438 C 40.390625 32.425781 42.3125 31.320312 43.757812 29.285156 C 44.605469 28.085938 45.917969 27.347656 47.355469 27.257812 C 48.734375 27.175781 50.0625 27.710938 51 28.734375 C 53.769531 31.777344 55.265625 35.667969 55.214844 39.722656 C 55.164062 43.804688 53.546875 47.648438 50.679688 50.621094 L 46.023438 45.1875 C 45.738281 44.859375 45.242188 44.820312 44.914062 45.105469 C 44.582031 45.386719 44.546875 45.882812 44.828125 46.214844 L 50.128906 52.394531 C 50.179688 52.488281 50.226562 52.585938 50.304688 52.667969 C 50.332031 52.695312 50.367188 52.707031 50.394531 52.730469 L 54.105469 57.160156 C 54.1875 57.257812 54.179688 57.40625 54.085938 57.5 C 53.992188 57.589844 53.839844 57.59375 53.738281 57.5 Z M 35.464844 41.699219 C 35.386719 41.6875 35.300781 41.675781 35.210938 41.65625 C 35.035156 41.625 34.84375 41.582031 34.636719 41.53125 C 34.59375 41.519531 34.546875 41.507812 34.503906 41.496094 C 34.355469 41.453125 34.199219 41.40625 34.042969 41.351562 C 33.96875 41.324219 33.894531 41.296875 33.816406 41.265625 C 33.730469 41.234375 33.640625 41.195312 33.554688 41.15625 C 33.433594 41.101562 33.316406 41.042969 33.195312 40.980469 C 33.121094 40.941406 33.046875 40.894531 32.972656 40.851562 C 32.851562 40.777344 32.734375 40.695312 32.621094 40.613281 C 32.574219 40.574219 32.523438 40.542969 32.480469 40.503906 C 32.335938 40.382812 32.199219 40.25 32.074219 40.105469 C 32.042969 40.070312 32.015625 40.035156 31.988281 40 C 31.859375 39.835938 31.738281 39.664062 31.644531 39.472656 C 31.609375 39.40625 31.578125 39.328125 31.546875 39.246094 C 31.53125 39.214844 31.519531 39.175781 31.507812 39.140625 C 31.488281 39.085938 31.46875 39.027344 31.453125 38.964844 C 31.4375 38.914062 31.421875 38.859375 31.40625 38.804688 C 31.390625 38.746094 31.378906 38.679688 31.363281 38.617188 C 31.347656 38.550781 31.332031 38.484375 31.320312 38.410156 C 31.304688 38.328125 31.292969 38.238281 31.277344 38.152344 C 31.257812 38.019531 31.242188 37.875 31.226562 37.722656 C 31.214844 37.632812 31.207031 37.542969 31.199219 37.445312 C 31.191406 37.347656 31.1875 37.246094 31.179688 37.144531 C 31.175781 37.027344 31.171875 36.90625 31.167969 36.78125 C 31.164062 36.679688 31.160156 36.578125 31.160156 36.46875 C 31.160156 36.320312 31.160156 36.160156 31.164062 36 C 31.164062 35.890625 31.167969 35.785156 31.171875 35.675781 C 31.179688 35.421875 31.191406 35.152344 31.210938 34.871094 C 31.210938 34.84375 31.210938 34.816406 31.214844 34.789062 C 31.265625 34.015625 31.34375 33.285156 31.425781 32.664062 C 31.578125 32.808594 31.738281 32.949219 31.90625 33.078125 C 32.597656 33.613281 33.375 33.992188 34.222656 34.203125 C 34.527344 34.28125 34.835938 34.34375 35.144531 34.402344 C 36.175781 34.613281 37.066406 34.792969 37.757812 35.445312 C 37.875 35.558594 37.980469 35.6875 38.078125 35.824219 C 38.097656 35.851562 38.109375 35.882812 38.128906 35.910156 C 38.203125 36.023438 38.273438 36.144531 38.332031 36.269531 C 38.351562 36.304688 38.363281 36.34375 38.378906 36.378906 C 38.433594 36.496094 38.484375 36.621094 38.527344 36.746094 C 38.546875 36.800781 38.5625 36.855469 38.578125 36.910156 C 38.609375 37.007812 38.636719 37.109375 38.660156 37.207031 C 38.683594 37.296875 38.703125 37.386719 38.722656 37.476562 C 38.734375 37.523438 38.742188 37.570312 38.75 37.617188 C 38.824219 38.03125 38.855469 38.40625 38.867188 38.65625 L 35.710938 41.734375 C 35.660156 41.726562 35.601562 41.71875 35.542969 41.710938 C 35.515625 41.707031 35.492188 41.703125 35.464844 41.699219 Z M 35.464844 41.699219 " fill-opacity="1" fill-rule="nonzero"/></svg>