<svg xmlns="http://www.w3.org/2000/svg" xmlns:xlink="http://www.w3.org/1999/xlink" width="100" zoomAndPan="magnify" viewBox="0 0 75 74.999997" height="100" preserveAspectRatio="xMidYMid meet" version="1.0"><path fill="#ffffff" d="M 73.429688 67.902344 L 67.65625 53.472656 C 67.5 53.074219 67.285156 52.714844 67.027344 52.390625 C 67.789062 51.539062 68.265625 50.433594 68.265625 49.203125 L 68.265625 13.082031 C 68.265625 10.441406 66.105469 8.28125 63.464844 8.28125 L 53.402344 8.28125 L 49.84375 11.578125 L 63.464844 11.578125 C 64.289062 11.578125 64.96875 12.257812 64.96875 13.082031 L 64.96875 49.203125 C 64.96875 50.023438 64.304688 50.699219 63.488281 50.714844 L 10.503906 50.714844 C 9.675781 50.699219 9.011719 50.023438 9.011719 49.203125 L 9.011719 13.082031 C 9.011719 12.257812 9.691406 11.578125 10.527344 11.578125 L 36.566406 11.578125 L 39.621094 8.28125 L 10.527344 8.28125 C 7.875 8.28125 5.714844 10.441406 5.714844 13.082031 L 5.714844 49.203125 C 5.714844 50.433594 6.191406 51.539062 6.953125 52.390625 C 6.699219 52.714844 6.480469 53.074219 6.324219 53.472656 L 0.550781 67.902344 C 0.0117188 69.257812 0.175781 70.785156 0.992188 71.992188 C 1.808594 73.199219 3.167969 73.921875 4.625 73.921875 L 69.355469 73.921875 C 70.8125 73.921875 72.171875 73.199219 72.988281 71.992188 C 73.804688 70.785156 73.96875 69.257812 73.429688 67.902344 Z M 70.261719 70.148438 C 70.164062 70.292969 69.878906 70.628906 69.355469 70.628906 L 4.625 70.628906 C 4.101562 70.628906 3.816406 70.292969 3.71875 70.148438 C 3.621094 70.003906 3.414062 69.613281 3.605469 69.125 L 9.378906 54.695312 C 9.546875 54.277344 9.945312 54.007812 10.398438 54.007812 L 63.582031 54.007812 C 64.035156 54.007812 64.433594 54.277344 64.601562 54.695312 L 70.371094 69.125 C 70.566406 69.613281 70.359375 70.003906 70.261719 70.148438 Z M 70.261719 70.148438 " fill-opacity="1" fill-rule="nonzero"/><path fill="#ffffff" d="M 43.207031 61.394531 L 30.773438 61.394531 C 30.378906 61.394531 30.039062 61.671875 29.964844 62.0625 L 28.867188 67.820312 C 28.820312 68.0625 28.886719 68.3125 29.042969 68.5 C 29.199219 68.6875 29.429688 68.796875 29.675781 68.796875 L 44.304688 68.796875 C 44.550781 68.796875 44.78125 68.6875 44.941406 68.5 C 45.097656 68.3125 45.160156 68.0625 45.113281 67.820312 L 44.015625 62.0625 C 43.941406 61.671875 43.601562 61.394531 43.207031 61.394531 Z M 30.671875 67.152344 L 31.453125 63.039062 L 42.527344 63.039062 L 43.3125 67.152344 Z M 30.671875 67.152344 " fill-opacity="1" fill-rule="nonzero"/><path fill="#ffffff" d="M 50.347656 23.441406 C 49.324219 22.339844 47.9375 21.71875 46.429688 21.675781 C 44.949219 21.628906 43.515625 22.167969 42.421875 23.191406 C 41.332031 24.222656 40.699219 25.601562 40.652344 27.105469 C 40.640625 27.863281 40.480469 28.613281 40.207031 29.324219 C 40.089844 29.632812 39.875 30.023438 39.6875 30.347656 C 39.484375 30.667969 39.242188 31.035156 38.941406 31.34375 C 37.886719 32.597656 36.289062 33.480469 34.589844 33.769531 C 32.730469 34.066406 30.765625 33.699219 29.191406 32.769531 C 28.6875 32.480469 28.203125 32.136719 27.757812 31.734375 C 27.433594 31.769531 27.101562 31.78125 26.757812 31.792969 L 26.539062 31.804688 C 26.054688 31.804688 25.035156 31.757812 23.863281 31.4375 C 24.863281 33.011719 26.21875 34.296875 27.789062 35.191406 C 29.902344 36.421875 32.535156 36.914062 35.039062 36.523438 C 37.414062 36.121094 39.5625 34.929688 41.03125 33.207031 C 41.457031 32.746094 41.769531 32.265625 42.066406 31.792969 C 42.332031 31.34375 42.617188 30.828125 42.800781 30.324219 C 43.191406 29.324219 43.410156 28.277344 43.445312 27.1875 C 43.46875 26.441406 43.777344 25.738281 44.328125 25.222656 C 44.878906 24.71875 45.59375 24.441406 46.351562 24.464844 C 47.109375 24.476562 47.796875 24.796875 48.328125 25.347656 C 48.832031 25.902344 49.105469 26.613281 49.085938 27.371094 C 49.074219 27.542969 49.0625 27.714844 49.015625 27.863281 L 48.96875 28.152344 C 48.589844 29.816406 47.957031 31.355469 47.0625 32.757812 C 46.601562 33.515625 46.074219 34.136719 45.605469 34.675781 C 44.972656 35.386719 44.410156 35.917969 43.824219 36.351562 C 41.410156 38.304688 38.242188 39.40625 35.140625 39.363281 C 32.0625 39.304688 29.144531 38.246094 26.90625 36.363281 C 25.253906 34.996094 24 33.238281 23.277344 31.253906 C 22.242188 30.875 21.175781 30.289062 20.324219 29.300781 C 20.152344 29.117188 20.015625 28.910156 19.910156 28.691406 C 19.832031 29.046875 19.84375 29.425781 19.910156 29.78125 C 20.589844 33.195312 22.4375 36.296875 25.125 38.5 C 27.824219 40.785156 31.375 42.082031 35.09375 42.152344 L 35.3125 42.152344 C 39.035156 42.152344 42.664062 40.878906 45.558594 38.546875 C 46.246094 38.019531 46.914062 37.398438 47.695312 36.535156 C 48.234375 35.917969 48.867188 35.15625 49.429688 34.25 C 50.484375 32.585938 51.242188 30.734375 51.679688 28.761719 L 51.75 28.472656 C 51.816406 28.140625 51.863281 27.796875 51.875 27.453125 C 51.921875 25.945312 51.382812 24.535156 50.347656 23.441406 Z M 50.347656 23.441406 " fill-opacity="1" fill-rule="nonzero"/><path fill="#ffffff" d="M 53.042969 1.3125 C 51.679688 0.0507812 49.539062 0.128906 48.273438 1.492188 L 31.507812 19.570312 C 27.011719 19.652344 24.660156 23.074219 23.976562 25.097656 C 23.839844 25.304688 23.53125 25.65625 22.804688 25.65625 C 22.800781 25.65625 22.792969 25.65625 22.785156 25.65625 C 22.167969 25.671875 21.648438 25.992188 21.398438 26.53125 C 21.144531 27.078125 21.234375 27.722656 21.625 28.175781 C 23.152344 29.945312 25.789062 30.078125 26.539062 30.078125 C 26.621094 30.078125 26.683594 30.078125 26.714844 30.074219 C 29.449219 30.015625 31.59375 29.183594 33.089844 27.601562 C 34.664062 25.9375 35.046875 23.898438 35.136719 22.867188 L 53.042969 6.261719 C 53.101562 6.207031 53.164062 6.144531 53.222656 6.082031 C 53.835938 5.421875 54.15625 4.5625 54.121094 3.660156 C 54.085938 2.761719 53.703125 1.925781 53.042969 1.3125 Z M 26.648438 27.660156 C 26.316406 27.671875 25.648438 27.628906 24.976562 27.445312 C 25.449219 27.136719 25.839844 26.714844 26.132812 26.195312 L 26.238281 25.957031 C 26.285156 25.800781 27.378906 22.421875 30.980469 22.027344 C 31.089844 22.347656 31.253906 22.648438 31.496094 22.910156 C 31.792969 23.230469 32.167969 23.453125 32.574219 23.574219 C 32.398438 24.292969 32.050781 25.183594 31.332031 25.941406 C 30.300781 27.035156 28.726562 27.613281 26.648438 27.660156 Z M 51.398438 4.492188 L 33.933594 20.613281 L 33.878906 20.566406 L 50.046875 3.136719 C 50.234375 2.933594 50.492188 2.832031 50.746094 2.832031 C 50.980469 2.832031 51.214844 2.914062 51.398438 3.085938 C 51.585938 3.261719 51.695312 3.496094 51.703125 3.753906 C 51.714844 4.007812 51.625 4.25 51.398438 4.492188 Z M 51.398438 4.492188 " fill-opacity="1" fill-rule="nonzero"/></svg>