<svg xmlns="http://www.w3.org/2000/svg" xmlns:xlink="http://www.w3.org/1999/xlink" width="100" zoomAndPan="magnify" viewBox="0 0 75 74.999997" height="100" preserveAspectRatio="xMidYMid meet" version="1.0"><defs><clipPath id="6de5480d9f"><path d="M 1.328125 1.335938 L 63.121094 1.335938 L 63.121094 74.085938 L 1.328125 74.085938 Z M 1.328125 1.335938 " clip-rule="nonzero"/></clipPath><clipPath id="191dc6597e"><path d="M 69.710938 28.71875 L 73.328125 28.71875 L 73.328125 30.769531 L 69.710938 30.769531 Z M 69.710938 28.71875 " clip-rule="nonzero"/></clipPath></defs><path fill="#ffffff" d="M 22.839844 69.957031 C 23.886719 69.957031 24.734375 69.109375 24.734375 68.0625 C 24.734375 67.019531 23.886719 66.171875 22.839844 66.171875 C 21.796875 66.171875 20.949219 67.019531 20.949219 68.0625 C 20.949219 69.109375 21.796875 69.957031 22.839844 69.957031 " fill-opacity="1" fill-rule="nonzero"/><path fill="#ffffff" d="M 25.382812 5.042969 L 18.199219 5.042969 L 18.199219 6.777344 L 25.382812 6.777344 L 25.382812 5.042969 " fill-opacity="1" fill-rule="nonzero"/><g clip-path="url(#6de5480d9f)"><path fill="#ffffff" d="M 53.792969 47.941406 C 53.507812 48.011719 53.21875 48.046875 52.925781 48.046875 C 50.773438 48.046875 49.128906 46.148438 48.125 44.550781 C 48.082031 44.480469 48.035156 44.410156 47.992188 44.335938 C 46.699219 42.199219 45.703125 39.277344 45.140625 36.003906 C 45.390625 36.03125 45.644531 36.042969 45.894531 36.042969 C 50.019531 36.042969 53.375 32.6875 53.375 28.566406 C 53.375 24.449219 50.019531 21.101562 45.894531 21.101562 C 45.765625 21.101562 45.632812 21.105469 45.507812 21.109375 C 46.058594 18.738281 46.835938 16.65625 47.789062 14.988281 C 48.046875 14.53125 48.320312 14.105469 48.605469 13.710938 C 49.050781 13.105469 49.628906 12.4375 50.316406 11.914062 C 50.898438 11.46875 51.558594 11.121094 52.289062 10.992188 C 52.496094 10.953125 52.710938 10.933594 52.925781 10.933594 C 53.21875 10.933594 53.507812 10.96875 53.792969 11.039062 C 57.929688 12.039062 61.269531 20.082031 61.269531 29.492188 C 61.269531 38.898438 57.929688 46.941406 53.792969 47.941406 Z M 44.890625 34.21875 C 44.8125 33.699219 44.753906 33.167969 44.707031 32.621094 C 44.703125 32.578125 44.699219 32.53125 44.695312 32.484375 C 44.6875 32.417969 44.683594 32.347656 44.679688 32.277344 C 44.617188 31.410156 44.585938 30.515625 44.582031 29.597656 C 44.589844 27.25 44.824219 24.988281 45.285156 22.867188 C 45.484375 22.847656 45.691406 22.835938 45.894531 22.835938 C 49.0625 22.835938 51.636719 25.40625 51.636719 28.566406 C 51.636719 31.730469 49.0625 34.308594 45.894531 34.308594 C 45.558594 34.308594 45.222656 34.277344 44.890625 34.21875 Z M 42.519531 41.742188 C 41.917969 41.46875 41.335938 41.207031 40.785156 40.964844 C 40.324219 40.757812 39.882812 40.570312 39.476562 40.402344 C 38.796875 40.117188 38.207031 39.882812 37.742188 39.726562 C 37.640625 39.691406 37.542969 39.660156 37.457031 39.636719 C 34.640625 38.78125 31.628906 38.148438 28.496094 37.75 L 28.496094 21.363281 C 31.441406 20.949219 34.484375 20.261719 37.550781 19.3125 C 37.609375 19.292969 37.675781 19.269531 37.742188 19.246094 C 38.207031 19.097656 38.796875 18.875 39.476562 18.605469 C 39.882812 18.445312 40.320312 18.261719 40.785156 18.070312 C 41.332031 17.84375 41.917969 17.59375 42.519531 17.332031 C 43.417969 16.945312 44.355469 16.53125 45.289062 16.113281 C 44.660156 17.585938 44.132812 19.265625 43.726562 21.125 C 43.140625 23.746094 42.847656 26.5625 42.847656 29.492188 C 42.847656 29.527344 42.847656 29.566406 42.847656 29.605469 C 42.847656 29.636719 42.847656 29.667969 42.847656 29.699219 C 42.847656 30.644531 42.882812 31.566406 42.953125 32.457031 C 42.953125 32.460938 42.953125 32.460938 42.953125 32.464844 C 42.953125 32.472656 42.953125 32.480469 42.953125 32.488281 C 43.023438 33.441406 43.125 34.363281 43.261719 35.25 C 43.6875 38.242188 44.425781 40.894531 45.398438 43.089844 C 44.429688 42.628906 43.453125 42.171875 42.519531 41.742188 Z M 27.523438 19.742188 C 23.976562 20.175781 21.824219 20.042969 21.800781 20.042969 L 21.699219 20.035156 L 21.597656 20.054688 C 20.4375 20.257812 19.511719 21.042969 19.101562 22.082031 L 14.941406 22.082031 C 12.335938 22.082031 10.214844 24.203125 10.214844 26.808594 L 10.214844 32.675781 C 10.214844 35.285156 12.335938 37.402344 14.941406 37.402344 L 19.300781 37.402344 C 19.648438 38.015625 20.1875 38.507812 20.84375 38.796875 L 20.84375 39.789062 L 19.675781 39.789062 L 19.675781 39.09375 L 8.777344 39.09375 L 8.777344 40.828125 L 17.941406 40.828125 L 17.941406 52.257812 L 8.777344 52.257812 L 8.777344 53.992188 L 19.675781 53.992188 L 19.675781 53.523438 L 20.84375 53.523438 L 20.84375 55.285156 C 20.84375 55.832031 21.285156 56.273438 21.832031 56.273438 L 26.632812 56.273438 C 27.179688 56.273438 27.621094 55.832031 27.621094 55.285156 L 27.621094 53.519531 C 28.828125 53.492188 29.992188 53.335938 30.617188 52.550781 C 31.011719 52.054688 31.121094 51.414062 30.945312 50.640625 C 30.886719 50.394531 30.746094 50.199219 30.582031 49.96875 C 30.554688 49.933594 30.523438 49.890625 30.492188 49.84375 C 30.800781 49.550781 31.238281 49.019531 31.238281 48.066406 L 31.238281 48.003906 C 31.226562 47.394531 30.875 47.011719 30.65625 46.78125 C 30.796875 46.675781 30.949219 46.550781 31.070312 46.371094 C 31.609375 45.550781 31.457031 44.65625 31.085938 44.171875 C 30.980469 44.035156 30.875 43.941406 30.796875 43.871094 C 30.78125 43.855469 30.765625 43.839844 30.75 43.828125 C 30.804688 43.742188 30.910156 43.617188 31.003906 43.539062 L 31.308594 43.277344 L 31.308594 42.878906 C 31.308594 41.132812 29.878906 39.960938 27.621094 39.808594 L 27.621094 39.390625 C 30.894531 39.773438 34.035156 40.410156 36.953125 41.296875 C 37.171875 41.363281 37.4375 41.457031 37.742188 41.570312 L 37.742188 59.230469 L 5.839844 59.230469 L 5.839844 10.738281 L 37.742188 10.738281 L 37.742188 17.414062 C 37.476562 17.507812 37.238281 17.589844 37.035156 17.652344 C 33.800781 18.65625 30.601562 19.359375 27.523438 19.742188 Z M 26.554688 37.53125 C 26.429688 37.519531 26.300781 37.507812 26.179688 37.5 C 26.078125 37.488281 25.984375 37.480469 25.886719 37.472656 C 25.859375 37.472656 25.832031 37.46875 25.804688 37.46875 C 25.746094 37.460938 25.6875 37.457031 25.625 37.453125 C 25.417969 37.4375 25.214844 37.421875 25.023438 37.410156 C 24.9375 37.402344 24.855469 37.398438 24.773438 37.394531 C 24.667969 37.386719 24.5625 37.382812 24.457031 37.375 C 24.402344 37.371094 24.34375 37.371094 24.289062 37.367188 C 24.234375 37.363281 24.175781 37.359375 24.125 37.359375 C 24.089844 37.355469 24.054688 37.355469 24.023438 37.355469 L 24.015625 37.355469 C 23.921875 37.347656 23.832031 37.347656 23.742188 37.34375 C 23.730469 37.34375 23.71875 37.34375 23.707031 37.339844 C 23.605469 37.335938 23.507812 37.332031 23.414062 37.332031 C 23.394531 37.332031 23.375 37.328125 23.359375 37.328125 C 23.285156 37.328125 23.210938 37.324219 23.144531 37.324219 C 22.929688 37.316406 22.742188 37.3125 22.578125 37.3125 C 22.472656 37.3125 22.378906 37.3125 22.292969 37.3125 C 22.101562 37.3125 21.960938 37.3125 21.878906 37.316406 C 21.597656 37.261719 21.339844 37.132812 21.136719 36.953125 C 21.085938 36.910156 21.039062 36.863281 20.996094 36.8125 C 20.980469 36.796875 20.96875 36.777344 20.953125 36.761719 C 20.917969 36.71875 20.886719 36.675781 20.855469 36.628906 C 20.851562 36.621094 20.84375 36.613281 20.839844 36.601562 C 20.804688 36.546875 20.773438 36.488281 20.746094 36.429688 C 20.742188 36.417969 20.738281 36.410156 20.734375 36.398438 C 20.710938 36.351562 20.695312 36.300781 20.679688 36.253906 C 20.671875 36.230469 20.667969 36.210938 20.660156 36.191406 C 20.648438 36.148438 20.640625 36.101562 20.632812 36.058594 C 20.628906 36.039062 20.625 36.019531 20.621094 35.996094 C 20.613281 35.933594 20.609375 35.867188 20.609375 35.800781 L 20.609375 23.289062 C 20.609375 22.980469 20.699219 22.6875 20.859375 22.441406 C 20.949219 22.304688 21.058594 22.183594 21.1875 22.082031 C 21.367188 21.9375 21.574219 21.835938 21.808594 21.78125 C 22.035156 21.789062 22.566406 21.808594 23.371094 21.789062 C 23.40625 21.789062 23.441406 21.789062 23.480469 21.789062 C 23.609375 21.785156 23.75 21.78125 23.890625 21.773438 C 23.96875 21.773438 24.046875 21.769531 24.128906 21.765625 C 24.183594 21.765625 24.234375 21.761719 24.289062 21.757812 C 24.363281 21.757812 24.433594 21.75 24.507812 21.75 C 24.59375 21.742188 24.683594 21.738281 24.773438 21.734375 C 24.863281 21.726562 24.957031 21.722656 25.050781 21.714844 C 25.238281 21.703125 25.433594 21.691406 25.636719 21.675781 C 25.6875 21.671875 25.738281 21.667969 25.789062 21.664062 C 25.945312 21.652344 26.101562 21.636719 26.265625 21.621094 C 26.34375 21.613281 26.421875 21.605469 26.503906 21.597656 C 26.589844 21.589844 26.675781 21.582031 26.761719 21.574219 L 26.761719 37.554688 C 26.691406 37.546875 26.625 37.539062 26.554688 37.53125 Z M 22.578125 39.046875 C 23.269531 39.054688 24.417969 39.089844 25.886719 39.214844 L 25.886719 39.789062 L 22.578125 39.789062 Z M 18.871094 25.691406 L 14.988281 25.691406 L 14.988281 27.179688 L 18.871094 27.179688 L 18.871094 28.816406 L 14.988281 28.816406 L 14.988281 30.304688 L 18.871094 30.304688 L 18.871094 31.546875 L 14.988281 31.546875 L 14.988281 33.035156 L 18.871094 33.035156 L 18.871094 35.296875 L 14.941406 35.296875 C 13.496094 35.296875 12.320312 34.121094 12.320312 32.675781 L 12.320312 26.808594 C 12.320312 25.367188 13.496094 24.191406 14.941406 24.191406 L 18.871094 24.191406 Z M 22.578125 53.523438 L 25.886719 53.523438 L 25.886719 54.539062 L 22.578125 54.539062 Z M 29.003906 43.996094 C 29.097656 44.671875 29.433594 44.972656 29.628906 45.152344 C 29.648438 45.167969 29.664062 45.1875 29.679688 45.203125 C 29.6875 45.234375 29.6875 45.289062 29.648438 45.367188 C 29.625 45.386719 29.589844 45.414062 29.566406 45.429688 C 29.304688 45.628906 28.691406 46.097656 28.796875 46.890625 C 28.867188 47.421875 29.179688 47.75 29.386719 47.964844 C 29.425781 48.007812 29.472656 48.058594 29.503906 48.09375 C 29.5 48.40625 29.402344 48.496094 29.195312 48.675781 C 28.980469 48.871094 28.570312 49.226562 28.628906 49.84375 C 28.667969 50.28125 28.949219 50.671875 29.171875 50.980469 C 29.203125 51.027344 29.242188 51.082031 29.273438 51.125 C 29.308594 51.320312 29.289062 51.433594 29.257812 51.46875 C 29.117188 51.648438 28.566406 51.753906 27.621094 51.78125 C 27.460938 51.785156 27.289062 51.789062 27.105469 51.789062 L 19.675781 51.789062 L 19.675781 41.523438 L 27.105469 41.523438 C 27.203125 41.523438 27.390625 41.527344 27.621094 41.550781 C 28.285156 41.617188 29.304688 41.835938 29.53125 42.566406 C 29.242188 42.902344 28.925781 43.414062 29.003906 43.996094 Z M 40.785156 62.363281 L 3.0625 62.363281 L 3.0625 7.839844 C 3.0625 5.210938 5.203125 3.070312 7.832031 3.070312 L 36.015625 3.070312 C 38.644531 3.070312 40.785156 5.210938 40.785156 7.839844 L 40.785156 16.1875 C 40.328125 16.382812 39.886719 16.566406 39.476562 16.734375 L 39.476562 9 L 4.105469 9 L 4.105469 60.964844 L 39.476562 60.964844 L 39.476562 42.28125 C 39.886719 42.460938 40.328125 42.65625 40.785156 42.859375 Z M 40.785156 67.589844 C 40.785156 69.148438 40.03125 70.539062 38.867188 71.410156 C 38.070312 72.003906 37.085938 72.359375 36.015625 72.359375 L 7.832031 72.359375 C 6.378906 72.359375 5.074219 71.703125 4.199219 70.671875 C 3.492188 69.839844 3.0625 68.765625 3.0625 67.589844 L 3.0625 64.101562 L 40.785156 64.101562 Z M 52.925781 9.199219 C 50.519531 9.199219 48.300781 10.804688 46.558594 13.636719 C 45.242188 14.234375 43.847656 14.859375 42.519531 15.441406 L 42.519531 7.839844 C 42.519531 4.253906 39.601562 1.335938 36.015625 1.335938 L 7.832031 1.335938 C 4.246094 1.335938 1.328125 4.253906 1.328125 7.839844 L 1.328125 67.589844 C 1.328125 71.175781 4.246094 74.09375 7.832031 74.09375 L 36.015625 74.09375 C 39.601562 74.09375 42.519531 71.175781 42.519531 67.589844 L 42.519531 43.65625 C 43.925781 44.308594 45.414062 45.019531 46.796875 45.6875 C 48.5 48.289062 50.628906 49.78125 52.925781 49.78125 C 55.742188 49.78125 58.332031 47.585938 60.222656 43.597656 C 62.019531 39.816406 63.007812 34.804688 63.007812 29.492188 C 63.007812 24.175781 62.019531 19.167969 60.222656 15.382812 C 58.332031 11.394531 55.742188 9.199219 52.925781 9.199219 " fill-opacity="1" fill-rule="nonzero"/></g><path fill="#ffffff" d="M 68.636719 9.664062 L 67.703125 8.199219 L 64.5625 10.199219 L 65.496094 11.660156 L 68.636719 9.664062 " fill-opacity="1" fill-rule="nonzero"/><path fill="#ffffff" d="M 68.886719 22.121094 L 72.320312 20.683594 L 71.648438 19.082031 L 68.214844 20.523438 L 68.886719 22.121094 " fill-opacity="1" fill-rule="nonzero"/><g clip-path="url(#191dc6597e)"><path fill="#ffffff" d="M 69.828125 30.695312 L 73.546875 30.523438 L 73.46875 28.792969 L 69.75 28.960938 L 69.828125 30.695312 " fill-opacity="1" fill-rule="nonzero"/></g><path fill="#ffffff" d="M 64.226562 50.808594 L 67.367188 52.804688 L 68.296875 51.339844 L 65.15625 49.34375 L 64.226562 50.808594 " fill-opacity="1" fill-rule="nonzero"/><path fill="#ffffff" d="M 67.878906 40.484375 L 71.3125 41.921875 L 71.984375 40.320312 L 68.546875 38.882812 L 67.878906 40.484375 " fill-opacity="1" fill-rule="nonzero"/></svg>