<svg xmlns="http://www.w3.org/2000/svg" xmlns:xlink="http://www.w3.org/1999/xlink" width="100" zoomAndPan="magnify" viewBox="0 0 75 74.999997" height="100" preserveAspectRatio="xMidYMid meet" version="1.0"><defs><clipPath id="b2cfa4b174"><path d="M 10.46875 1.351562 L 67.46875 1.351562 L 67.46875 74 L 10.46875 74 Z M 10.46875 1.351562 " clip-rule="nonzero"/></clipPath><clipPath id="cc048bcaa6"><path d="M 10.46875 16 L 55 16 L 55 74 L 10.46875 74 Z M 10.46875 16 " clip-rule="nonzero"/></clipPath></defs><g clip-path="url(#b2cfa4b174)"><path fill="#ffffff" d="M 63.601562 71.320312 L 59.714844 71.320312 C 59.542969 71.320312 59.378906 71.355469 59.21875 71.421875 C 59.058594 71.484375 58.917969 71.578125 58.796875 71.703125 C 58.675781 71.824219 58.582031 71.960938 58.515625 72.121094 C 58.453125 72.28125 58.417969 72.445312 58.417969 72.617188 C 58.417969 72.789062 58.453125 72.953125 58.515625 73.113281 C 58.582031 73.273438 58.675781 73.414062 58.796875 73.535156 C 58.917969 73.65625 59.058594 73.75 59.21875 73.816406 C 59.378906 73.878906 59.542969 73.914062 59.714844 73.914062 L 63.601562 73.914062 C 64.117188 73.914062 64.613281 73.8125 65.089844 73.617188 C 65.566406 73.417969 65.984375 73.136719 66.347656 72.773438 C 66.714844 72.410156 66.996094 71.988281 67.191406 71.511719 C 67.390625 71.035156 67.488281 70.542969 67.488281 70.027344 L 67.488281 5.238281 C 67.488281 4.722656 67.390625 4.226562 67.191406 3.75 C 66.996094 3.273438 66.714844 2.855469 66.347656 2.492188 C 65.984375 2.125 65.566406 1.84375 65.089844 1.648438 C 64.613281 1.449219 64.117188 1.351562 63.601562 1.351562 L 14.363281 1.351562 C 13.847656 1.351562 13.351562 1.449219 12.875 1.648438 C 12.398438 1.84375 11.980469 2.125 11.617188 2.492188 C 11.25 2.855469 10.96875 3.273438 10.773438 3.75 C 10.574219 4.226562 10.476562 4.722656 10.476562 5.238281 L 10.476562 11.714844 C 10.480469 11.886719 10.515625 12.050781 10.582031 12.207031 C 10.648438 12.363281 10.742188 12.5 10.863281 12.617188 C 10.984375 12.738281 11.125 12.828125 11.28125 12.894531 C 11.4375 12.957031 11.601562 12.988281 11.769531 12.988281 C 11.941406 12.988281 12.105469 12.957031 12.261719 12.894531 C 12.417969 12.828125 12.558594 12.738281 12.679688 12.617188 C 12.800781 12.5 12.894531 12.363281 12.960938 12.207031 C 13.027344 12.050781 13.0625 11.886719 13.066406 11.714844 L 13.066406 5.238281 C 13.066406 5.066406 13.101562 4.902344 13.167969 4.742188 C 13.230469 4.582031 13.324219 4.445312 13.445312 4.320312 C 13.570312 4.199219 13.707031 4.105469 13.867188 4.042969 C 14.027344 3.976562 14.191406 3.941406 14.363281 3.941406 L 63.601562 3.941406 C 63.773438 3.941406 63.9375 3.976562 64.097656 4.042969 C 64.257812 4.105469 64.394531 4.199219 64.519531 4.320312 C 64.640625 4.445312 64.734375 4.582031 64.796875 4.742188 C 64.863281 4.902344 64.898438 5.066406 64.898438 5.238281 L 64.898438 70.027344 C 64.898438 70.199219 64.863281 70.363281 64.796875 70.523438 C 64.734375 70.679688 64.640625 70.820312 64.519531 70.941406 C 64.394531 71.0625 64.257812 71.15625 64.097656 71.222656 C 63.9375 71.289062 63.773438 71.320312 63.601562 71.320312 Z M 63.601562 71.320312 " fill-opacity="1" fill-rule="nonzero"/></g><g clip-path="url(#cc048bcaa6)"><path fill="#ffffff" d="M 11.769531 16.898438 C 11.597656 16.898438 11.433594 16.933594 11.277344 17 C 11.117188 17.0625 10.976562 17.15625 10.855469 17.277344 C 10.734375 17.402344 10.640625 17.539062 10.574219 17.699219 C 10.507812 17.859375 10.476562 18.023438 10.476562 18.195312 L 10.476562 70.027344 C 10.476562 70.542969 10.574219 71.035156 10.773438 71.511719 C 10.96875 71.988281 11.25 72.410156 11.617188 72.773438 C 11.980469 73.136719 12.398438 73.417969 12.875 73.617188 C 13.351562 73.8125 13.847656 73.914062 14.363281 73.914062 L 53.234375 73.914062 C 53.40625 73.914062 53.574219 73.878906 53.730469 73.816406 C 53.890625 73.75 54.03125 73.65625 54.152344 73.535156 C 54.273438 73.414062 54.367188 73.273438 54.433594 73.113281 C 54.5 72.953125 54.53125 72.789062 54.53125 72.617188 C 54.53125 72.445312 54.5 72.28125 54.433594 72.121094 C 54.367188 71.960938 54.273438 71.824219 54.152344 71.703125 C 54.03125 71.578125 53.890625 71.484375 53.730469 71.421875 C 53.574219 71.355469 53.40625 71.320312 53.234375 71.320312 L 14.363281 71.320312 C 14.191406 71.320312 14.027344 71.289062 13.867188 71.222656 C 13.707031 71.15625 13.570312 71.0625 13.445312 70.941406 C 13.324219 70.820312 13.230469 70.679688 13.167969 70.523438 C 13.101562 70.363281 13.066406 70.199219 13.066406 70.027344 L 13.066406 18.195312 C 13.066406 18.023438 13.035156 17.859375 12.96875 17.699219 C 12.902344 17.539062 12.808594 17.402344 12.6875 17.277344 C 12.566406 17.15625 12.425781 17.0625 12.265625 17 C 12.109375 16.933594 11.941406 16.898438 11.769531 16.898438 Z M 11.769531 16.898438 " fill-opacity="1" fill-rule="nonzero"/></g><path fill="#ffffff" d="M 37.6875 21.433594 L 36.351562 21.433594 C 36.363281 21.292969 36.390625 21.148438 36.390625 21.007812 L 36.390625 14.089844 C 36.390625 13.6875 36.3125 13.304688 36.160156 12.933594 C 36.007812 12.5625 35.789062 12.238281 35.503906 11.953125 C 35.222656 11.671875 34.894531 11.453125 34.527344 11.300781 C 34.15625 11.144531 33.773438 11.070312 33.371094 11.070312 L 29.910156 11.070312 C 29.511719 11.070312 29.125 11.144531 28.757812 11.300781 C 28.386719 11.453125 28.0625 11.671875 27.777344 11.953125 C 27.496094 12.238281 27.277344 12.5625 27.125 12.933594 C 26.96875 13.304688 26.894531 13.6875 26.894531 14.089844 L 26.894531 21.007812 C 26.894531 21.40625 26.96875 21.792969 27.125 22.164062 C 27.277344 22.53125 27.496094 22.859375 27.777344 23.140625 C 28.0625 23.425781 28.386719 23.640625 28.757812 23.796875 C 29.125 23.949219 29.511719 24.027344 29.910156 24.027344 L 37.6875 24.027344 C 37.855469 24.023438 38.019531 23.988281 38.175781 23.921875 C 38.332031 23.855469 38.46875 23.761719 38.589844 23.640625 C 38.707031 23.519531 38.796875 23.378906 38.863281 23.222656 C 38.925781 23.0625 38.960938 22.902344 38.960938 22.730469 C 38.960938 22.5625 38.925781 22.398438 38.863281 22.238281 C 38.796875 22.082031 38.707031 21.945312 38.589844 21.824219 C 38.46875 21.703125 38.332031 21.605469 38.175781 21.539062 C 38.019531 21.472656 37.855469 21.4375 37.6875 21.433594 Z M 33.800781 21.007812 C 33.796875 21.125 33.757812 21.226562 33.671875 21.308594 C 33.589844 21.390625 33.488281 21.433594 33.371094 21.433594 L 29.910156 21.433594 C 29.792969 21.433594 29.695312 21.390625 29.609375 21.308594 C 29.527344 21.226562 29.484375 21.125 29.484375 21.007812 L 29.484375 14.089844 C 29.484375 13.96875 29.527344 13.871094 29.609375 13.785156 C 29.695312 13.703125 29.792969 13.660156 29.910156 13.660156 L 33.371094 13.660156 C 33.488281 13.660156 33.589844 13.703125 33.671875 13.785156 C 33.757812 13.871094 33.796875 13.96875 33.800781 14.089844 Z M 33.800781 21.007812 " fill-opacity="1" fill-rule="nonzero"/><path fill="#ffffff" d="M 48.050781 11.070312 L 44.59375 11.070312 C 44.191406 11.070312 43.808594 11.148438 43.4375 11.300781 C 43.070312 11.457031 42.746094 11.671875 42.460938 11.957031 C 42.179688 12.238281 41.960938 12.566406 41.808594 12.933594 C 41.652344 13.304688 41.574219 13.6875 41.574219 14.089844 L 41.574219 22.730469 C 41.578125 22.902344 41.613281 23.0625 41.679688 23.21875 C 41.746094 23.375 41.839844 23.511719 41.960938 23.632812 C 42.082031 23.75 42.222656 23.84375 42.378906 23.90625 C 42.535156 23.972656 42.699219 24.003906 42.871094 24.003906 C 43.039062 24.003906 43.203125 23.972656 43.359375 23.90625 C 43.515625 23.84375 43.65625 23.75 43.777344 23.632812 C 43.898438 23.511719 43.992188 23.375 44.058594 23.21875 C 44.128906 23.0625 44.164062 22.902344 44.164062 22.730469 L 44.164062 18.84375 L 48.480469 18.84375 L 48.480469 22.730469 C 48.480469 22.902344 48.511719 23.066406 48.578125 23.226562 C 48.644531 23.386719 48.738281 23.527344 48.859375 23.648438 C 48.980469 23.769531 49.121094 23.863281 49.28125 23.929688 C 49.4375 23.992188 49.605469 24.027344 49.777344 24.027344 C 49.949219 24.027344 50.113281 23.992188 50.273438 23.929688 C 50.429688 23.863281 50.570312 23.769531 50.691406 23.648438 C 50.8125 23.527344 50.90625 23.386719 50.972656 23.226562 C 51.039062 23.066406 51.070312 22.902344 51.070312 22.730469 L 51.070312 14.089844 C 51.070312 13.6875 50.996094 13.304688 50.839844 12.933594 C 50.6875 12.5625 50.46875 12.238281 50.1875 11.953125 C 49.902344 11.671875 49.578125 11.453125 49.207031 11.300781 C 48.835938 11.144531 48.453125 11.070312 48.050781 11.070312 Z M 48.480469 16.25 L 44.164062 16.25 L 44.164062 14.089844 C 44.167969 13.96875 44.207031 13.871094 44.292969 13.785156 C 44.375 13.703125 44.476562 13.660156 44.59375 13.660156 L 48.050781 13.660156 C 48.171875 13.660156 48.269531 13.703125 48.355469 13.785156 C 48.4375 13.871094 48.480469 13.96875 48.480469 14.089844 Z M 48.480469 16.25 " fill-opacity="1" fill-rule="nonzero"/><path fill="#ffffff" d="M 54.53125 31.152344 L 28.617188 31.152344 C 28.445312 31.15625 28.285156 31.191406 28.128906 31.257812 C 27.972656 31.328125 27.835938 31.421875 27.714844 31.542969 C 27.597656 31.664062 27.507812 31.800781 27.441406 31.957031 C 27.378906 32.117188 27.347656 32.28125 27.347656 32.449219 C 27.347656 32.617188 27.378906 32.78125 27.441406 32.9375 C 27.507812 33.097656 27.597656 33.234375 27.714844 33.355469 C 27.835938 33.476562 27.972656 33.570312 28.128906 33.640625 C 28.285156 33.707031 28.445312 33.742188 28.617188 33.746094 L 54.53125 33.746094 C 54.699219 33.742188 54.863281 33.707031 55.019531 33.640625 C 55.175781 33.570312 55.3125 33.476562 55.429688 33.355469 C 55.550781 33.234375 55.640625 33.097656 55.707031 32.9375 C 55.769531 32.78125 55.800781 32.617188 55.800781 32.449219 C 55.800781 32.28125 55.769531 32.117188 55.707031 31.957031 C 55.640625 31.800781 55.550781 31.664062 55.429688 31.542969 C 55.3125 31.421875 55.175781 31.328125 55.019531 31.257812 C 54.863281 31.191406 54.699219 31.15625 54.53125 31.152344 Z M 54.53125 31.152344 " fill-opacity="1" fill-rule="nonzero"/><path fill="#ffffff" d="M 28.617188 44.109375 L 45.894531 44.109375 C 46.0625 44.109375 46.226562 44.070312 46.378906 44.003906 C 46.535156 43.9375 46.675781 43.84375 46.792969 43.722656 C 46.910156 43.601562 47.003906 43.460938 47.066406 43.304688 C 47.132812 43.148438 47.164062 42.984375 47.164062 42.816406 C 47.164062 42.644531 47.132812 42.480469 47.066406 42.324219 C 47.003906 42.167969 46.910156 42.027344 46.792969 41.90625 C 46.675781 41.785156 46.535156 41.691406 46.378906 41.625 C 46.226562 41.558594 46.0625 41.523438 45.890625 41.519531 L 28.617188 41.519531 C 28.445312 41.523438 28.285156 41.558594 28.128906 41.625 C 27.972656 41.691406 27.835938 41.785156 27.714844 41.90625 C 27.597656 42.027344 27.507812 42.167969 27.441406 42.324219 C 27.378906 42.480469 27.34375 42.644531 27.34375 42.816406 C 27.34375 42.984375 27.378906 43.148438 27.441406 43.304688 C 27.507812 43.460938 27.597656 43.601562 27.714844 43.722656 C 27.835938 43.84375 27.972656 43.9375 28.128906 44.003906 C 28.285156 44.070312 28.445312 44.109375 28.617188 44.109375 Z M 28.617188 44.109375 " fill-opacity="1" fill-rule="nonzero"/><path fill="#ffffff" d="M 55.828125 53.179688 C 55.828125 53.007812 55.792969 52.84375 55.730469 52.683594 C 55.664062 52.527344 55.570312 52.386719 55.449219 52.265625 C 55.328125 52.144531 55.1875 52.050781 55.027344 51.984375 C 54.867188 51.917969 54.703125 51.886719 54.53125 51.886719 L 28.617188 51.886719 C 28.445312 51.886719 28.277344 51.917969 28.121094 51.984375 C 27.960938 52.050781 27.820312 52.144531 27.699219 52.265625 C 27.578125 52.386719 27.484375 52.527344 27.417969 52.683594 C 27.351562 52.84375 27.320312 53.007812 27.320312 53.179688 C 27.320312 53.351562 27.351562 53.519531 27.417969 53.675781 C 27.484375 53.835938 27.578125 53.976562 27.699219 54.097656 C 27.820312 54.21875 27.960938 54.3125 28.121094 54.378906 C 28.277344 54.445312 28.445312 54.476562 28.617188 54.476562 L 54.53125 54.476562 C 54.703125 54.476562 54.867188 54.445312 55.027344 54.378906 C 55.1875 54.3125 55.328125 54.21875 55.449219 54.097656 C 55.570312 53.976562 55.664062 53.835938 55.730469 53.675781 C 55.792969 53.519531 55.828125 53.351562 55.828125 53.179688 Z M 55.828125 53.179688 " fill-opacity="1" fill-rule="nonzero"/><path fill="#ffffff" d="M 45.894531 64.84375 C 46.0625 64.839844 46.226562 64.804688 46.378906 64.738281 C 46.535156 64.667969 46.675781 64.574219 46.792969 64.453125 C 46.910156 64.332031 47.003906 64.195312 47.066406 64.039062 C 47.132812 63.878906 47.164062 63.714844 47.164062 63.546875 C 47.164062 63.378906 47.132812 63.214844 47.066406 63.058594 C 47.003906 62.898438 46.910156 62.761719 46.792969 62.640625 C 46.675781 62.519531 46.535156 62.425781 46.378906 62.355469 C 46.226562 62.289062 46.0625 62.253906 45.890625 62.25 L 28.617188 62.25 C 28.445312 62.253906 28.285156 62.289062 28.128906 62.355469 C 27.972656 62.425781 27.835938 62.519531 27.714844 62.640625 C 27.597656 62.761719 27.507812 62.898438 27.441406 63.058594 C 27.378906 63.214844 27.34375 63.378906 27.34375 63.546875 C 27.34375 63.71875 27.378906 63.878906 27.441406 64.039062 C 27.507812 64.195312 27.597656 64.332031 27.714844 64.453125 C 27.835938 64.574219 27.972656 64.671875 28.128906 64.738281 C 28.285156 64.804688 28.445312 64.839844 28.617188 64.84375 Z M 45.894531 64.84375 " fill-opacity="1" fill-rule="nonzero"/><path fill="#ffffff" d="M 22.136719 33.746094 C 22.308594 33.742188 22.46875 33.707031 22.625 33.640625 C 22.78125 33.570312 22.917969 33.476562 23.039062 33.355469 C 23.15625 33.234375 23.246094 33.097656 23.3125 32.9375 C 23.375 32.78125 23.410156 32.617188 23.410156 32.449219 C 23.410156 32.277344 23.375 32.117188 23.3125 31.957031 C 23.246094 31.800781 23.15625 31.664062 23.039062 31.542969 C 22.917969 31.421875 22.78125 31.324219 22.625 31.257812 C 22.46875 31.191406 22.308594 31.15625 22.136719 31.152344 C 21.96875 31.15625 21.804688 31.191406 21.648438 31.257812 C 21.492188 31.328125 21.355469 31.421875 21.238281 31.542969 C 21.117188 31.664062 21.027344 31.800781 20.964844 31.957031 C 20.898438 32.117188 20.867188 32.277344 20.867188 32.449219 C 20.867188 32.617188 20.898438 32.78125 20.964844 32.9375 C 21.027344 33.097656 21.117188 33.234375 21.238281 33.355469 C 21.355469 33.476562 21.492188 33.570312 21.648438 33.640625 C 21.804688 33.707031 21.96875 33.742188 22.136719 33.746094 Z M 22.136719 33.746094 " fill-opacity="1" fill-rule="nonzero"/><path fill="#ffffff" d="M 22.136719 44.109375 C 22.308594 44.109375 22.46875 44.070312 22.625 44.003906 C 22.78125 43.9375 22.917969 43.84375 23.039062 43.722656 C 23.15625 43.601562 23.246094 43.460938 23.3125 43.304688 C 23.375 43.148438 23.410156 42.984375 23.410156 42.816406 C 23.410156 42.644531 23.375 42.480469 23.3125 42.324219 C 23.246094 42.167969 23.15625 42.027344 23.039062 41.90625 C 22.917969 41.785156 22.78125 41.691406 22.625 41.625 C 22.46875 41.558594 22.308594 41.523438 22.136719 41.519531 C 21.96875 41.523438 21.804688 41.558594 21.648438 41.625 C 21.492188 41.691406 21.355469 41.785156 21.238281 41.90625 C 21.117188 42.027344 21.027344 42.167969 20.960938 42.324219 C 20.898438 42.480469 20.867188 42.644531 20.867188 42.816406 C 20.867188 42.984375 20.898438 43.148438 20.964844 43.304688 C 21.027344 43.460938 21.117188 43.601562 21.238281 43.722656 C 21.355469 43.84375 21.492188 43.9375 21.648438 44.003906 C 21.804688 44.070312 21.96875 44.109375 22.136719 44.109375 Z M 22.136719 44.109375 " fill-opacity="1" fill-rule="nonzero"/><path fill="#ffffff" d="M 22.136719 54.476562 C 22.308594 54.472656 22.46875 54.4375 22.625 54.371094 C 22.78125 54.304688 22.917969 54.210938 23.039062 54.089844 C 23.15625 53.96875 23.246094 53.828125 23.3125 53.671875 C 23.375 53.515625 23.40625 53.351562 23.40625 53.179688 C 23.40625 53.011719 23.375 52.847656 23.3125 52.691406 C 23.246094 52.535156 23.15625 52.394531 23.039062 52.273438 C 22.917969 52.152344 22.78125 52.058594 22.625 51.992188 C 22.46875 51.925781 22.308594 51.886719 22.136719 51.886719 C 21.96875 51.886719 21.804688 51.925781 21.648438 51.992188 C 21.492188 52.058594 21.355469 52.152344 21.238281 52.273438 C 21.117188 52.394531 21.027344 52.535156 20.964844 52.691406 C 20.898438 52.847656 20.867188 53.011719 20.867188 53.179688 C 20.867188 53.351562 20.898438 53.515625 20.964844 53.671875 C 21.027344 53.828125 21.117188 53.96875 21.238281 54.089844 C 21.355469 54.210938 21.492188 54.304688 21.648438 54.371094 C 21.804688 54.4375 21.96875 54.472656 22.136719 54.476562 Z M 22.136719 54.476562 " fill-opacity="1" fill-rule="nonzero"/><path fill="#ffffff" d="M 22.136719 64.84375 C 22.308594 64.839844 22.46875 64.804688 22.625 64.738281 C 22.78125 64.667969 22.917969 64.574219 23.039062 64.453125 C 23.15625 64.332031 23.246094 64.195312 23.3125 64.039062 C 23.375 63.878906 23.410156 63.714844 23.410156 63.546875 C 23.410156 63.378906 23.375 63.214844 23.3125 63.058594 C 23.246094 62.898438 23.15625 62.761719 23.039062 62.640625 C 22.917969 62.519531 22.78125 62.425781 22.625 62.355469 C 22.46875 62.289062 22.308594 62.253906 22.136719 62.25 C 21.96875 62.253906 21.804688 62.289062 21.648438 62.355469 C 21.492188 62.425781 21.355469 62.519531 21.238281 62.640625 C 21.117188 62.761719 21.027344 62.898438 20.960938 63.058594 C 20.898438 63.214844 20.867188 63.378906 20.867188 63.546875 C 20.867188 63.71875 20.898438 63.878906 20.964844 64.039062 C 21.027344 64.195312 21.117188 64.332031 21.238281 64.453125 C 21.355469 64.574219 21.492188 64.671875 21.648438 64.738281 C 21.804688 64.804688 21.96875 64.839844 22.136719 64.84375 Z M 22.136719 64.84375 " fill-opacity="1" fill-rule="nonzero"/></svg>