<svg xmlns="http://www.w3.org/2000/svg" xmlns:xlink="http://www.w3.org/1999/xlink" width="100" zoomAndPan="magnify" viewBox="0 0 75 74.999997" height="100" preserveAspectRatio="xMidYMid meet" version="1.0"><path fill="#ffffff" d="M 55 8.375 C 55.265625 8.378906 55.527344 8.355469 55.785156 8.308594 C 56.042969 8.257812 56.296875 8.183594 56.539062 8.085938 C 56.785156 7.984375 57.019531 7.863281 57.238281 7.71875 C 57.460938 7.574219 57.664062 7.410156 57.851562 7.222656 C 58.039062 7.039062 58.207031 6.835938 58.355469 6.617188 C 58.503906 6.402344 58.628906 6.167969 58.730469 5.925781 C 58.835938 5.683594 58.914062 5.433594 58.964844 5.175781 C 59.019531 4.914062 59.046875 4.65625 59.046875 4.390625 C 59.050781 4.125 59.027344 3.867188 58.976562 3.605469 C 58.925781 3.347656 58.851562 3.09375 58.75 2.851562 C 58.652344 2.605469 58.527344 2.375 58.382812 2.152344 C 58.238281 1.933594 58.074219 1.730469 57.886719 1.542969 C 57.699219 1.355469 57.5 1.1875 57.28125 1.039062 C 57.0625 0.894531 56.832031 0.769531 56.585938 0.664062 C 56.34375 0.5625 56.09375 0.488281 55.832031 0.433594 C 55.574219 0.382812 55.3125 0.355469 55.050781 0.355469 C 54.785156 0.355469 54.523438 0.378906 54.265625 0.429688 C 54.007812 0.480469 53.753906 0.554688 53.511719 0.65625 C 53.265625 0.757812 53.035156 0.878906 52.816406 1.027344 C 52.59375 1.171875 52.390625 1.339844 52.207031 1.523438 C 52.019531 1.710938 51.851562 1.914062 51.703125 2.132812 C 51.558594 2.351562 51.433594 2.585938 51.332031 2.828125 C 51.230469 3.070312 51.15625 3.324219 51.105469 3.582031 C 51.050781 3.839844 51.027344 4.101562 51.027344 4.367188 C 51.023438 4.628906 51.050781 4.886719 51.097656 5.144531 C 51.148438 5.402344 51.222656 5.652344 51.324219 5.894531 C 51.421875 6.136719 51.542969 6.367188 51.6875 6.585938 C 51.832031 6.804688 51.996094 7.007812 52.183594 7.195312 C 52.367188 7.378906 52.566406 7.546875 52.785156 7.695312 C 53.003906 7.839844 53.230469 7.964844 53.472656 8.066406 C 53.714844 8.167969 53.964844 8.246094 54.222656 8.296875 C 54.476562 8.347656 54.738281 8.375 55 8.375 Z M 55 5.914062 C 54.796875 5.90625 54.605469 5.855469 54.417969 5.769531 C 54.234375 5.683594 54.074219 5.566406 53.9375 5.417969 C 53.800781 5.269531 53.695312 5.097656 53.625 4.910156 C 53.550781 4.71875 53.519531 4.519531 53.527344 4.316406 C 53.535156 4.117188 53.578125 3.921875 53.660156 3.734375 C 53.742188 3.550781 53.859375 3.386719 54.003906 3.246094 C 54.152344 3.105469 54.320312 3 54.511719 2.925781 C 54.699219 2.851562 54.894531 2.816406 55.097656 2.820312 C 55.300781 2.820312 55.496094 2.863281 55.683594 2.945312 C 55.871094 3.023438 56.035156 3.136719 56.175781 3.28125 C 56.320312 3.425781 56.429688 3.589844 56.507812 3.777344 C 56.585938 3.96875 56.621094 4.164062 56.625 4.367188 C 56.632812 4.582031 56.59375 4.792969 56.515625 4.992188 C 56.4375 5.195312 56.320312 5.371094 56.164062 5.523438 C 56.011719 5.675781 55.832031 5.792969 55.628906 5.871094 C 55.425781 5.949219 55.214844 5.980469 55 5.96875 Z M 55 5.914062 " fill-opacity="1" fill-rule="nonzero"/><path fill="#ffffff" d="M 43.824219 8.375 C 44.089844 8.378906 44.347656 8.355469 44.609375 8.304688 C 44.867188 8.253906 45.117188 8.179688 45.363281 8.078125 C 45.605469 7.976562 45.839844 7.855469 46.058594 7.710938 C 46.277344 7.5625 46.480469 7.398438 46.667969 7.214844 C 46.855469 7.027344 47.023438 6.824219 47.171875 6.605469 C 47.316406 6.386719 47.441406 6.15625 47.542969 5.914062 C 47.644531 5.671875 47.722656 5.417969 47.773438 5.160156 C 47.828125 4.902344 47.855469 4.640625 47.855469 4.378906 C 47.855469 4.113281 47.832031 3.851562 47.78125 3.59375 C 47.730469 3.335938 47.652344 3.085938 47.554688 2.839844 C 47.453125 2.597656 47.328125 2.363281 47.183594 2.144531 C 47.039062 1.925781 46.871094 1.722656 46.6875 1.535156 C 46.5 1.347656 46.296875 1.183594 46.078125 1.035156 C 45.859375 0.886719 45.628906 0.765625 45.386719 0.664062 C 45.140625 0.5625 44.890625 0.484375 44.632812 0.433594 C 44.375 0.382812 44.113281 0.355469 43.847656 0.355469 C 43.585938 0.355469 43.324219 0.378906 43.066406 0.429688 C 42.808594 0.480469 42.554688 0.558594 42.3125 0.65625 C 42.070312 0.757812 41.835938 0.882812 41.617188 1.027344 C 41.398438 1.175781 41.195312 1.339844 41.007812 1.527344 C 40.824219 1.714844 40.65625 1.917969 40.507812 2.136719 C 40.363281 2.355469 40.238281 2.585938 40.136719 2.828125 C 40.035156 3.074219 39.960938 3.324219 39.910156 3.582031 C 39.859375 3.839844 39.832031 4.101562 39.832031 4.367188 C 39.832031 4.628906 39.855469 4.890625 39.90625 5.148438 C 39.957031 5.40625 40.03125 5.65625 40.128906 5.898438 C 40.230469 6.140625 40.351562 6.375 40.5 6.59375 C 40.644531 6.8125 40.808594 7.015625 40.996094 7.199219 C 41.179688 7.386719 41.382812 7.554688 41.601562 7.699219 C 41.820312 7.847656 42.050781 7.96875 42.292969 8.070312 C 42.535156 8.171875 42.785156 8.25 43.042969 8.300781 C 43.300781 8.351562 43.5625 8.375 43.824219 8.375 Z M 43.824219 2.78125 C 44.03125 2.78125 44.226562 2.820312 44.417969 2.898438 C 44.609375 2.976562 44.777344 3.089844 44.921875 3.234375 C 45.066406 3.382812 45.179688 3.550781 45.257812 3.738281 C 45.335938 3.929688 45.375 4.128906 45.371094 4.335938 C 45.371094 4.539062 45.332031 4.738281 45.253906 4.929688 C 45.171875 5.117188 45.058594 5.285156 44.914062 5.429688 C 44.765625 5.574219 44.597656 5.6875 44.40625 5.761719 C 44.214844 5.839844 44.019531 5.878906 43.8125 5.875 C 43.605469 5.875 43.410156 5.835938 43.21875 5.753906 C 43.03125 5.671875 42.863281 5.558594 42.71875 5.414062 C 42.574219 5.265625 42.464844 5.097656 42.386719 4.90625 C 42.3125 4.714844 42.273438 4.515625 42.277344 4.308594 C 42.285156 4.109375 42.328125 3.917969 42.410156 3.738281 C 42.492188 3.554688 42.605469 3.394531 42.75 3.257812 C 42.894531 3.121094 43.058594 3.015625 43.246094 2.941406 C 43.433594 2.867188 43.625 2.832031 43.824219 2.835938 Z M 43.824219 2.78125 " fill-opacity="1" fill-rule="nonzero"/><path fill="#ffffff" d="M 68.957031 19.382812 L 41.867188 19.382812 C 41.703125 19.382812 41.546875 19.414062 41.394531 19.476562 C 41.242188 19.539062 41.109375 19.628906 40.996094 19.746094 C 40.878906 19.859375 40.789062 19.992188 40.726562 20.144531 C 40.664062 20.296875 40.632812 20.453125 40.632812 20.617188 L 40.632812 25.261719 C 40.632812 25.425781 40.664062 25.582031 40.726562 25.730469 C 40.789062 25.882812 40.878906 26.015625 40.996094 26.132812 C 41.109375 26.246094 41.242188 26.335938 41.394531 26.398438 C 41.546875 26.460938 41.703125 26.492188 41.867188 26.492188 C 42.027344 26.492188 42.1875 26.460938 42.335938 26.398438 C 42.488281 26.335938 42.621094 26.246094 42.738281 26.132812 C 42.851562 26.015625 42.941406 25.882812 43.003906 25.730469 C 43.066406 25.582031 43.097656 25.425781 43.097656 25.261719 L 43.097656 21.847656 L 67.816406 21.847656 L 67.816406 39.550781 L 53.621094 39.550781 C 53.445312 39.53125 53.273438 39.546875 53.105469 39.597656 C 52.933594 39.648438 52.785156 39.734375 52.652344 39.851562 C 52.519531 39.96875 52.417969 40.105469 52.34375 40.269531 C 52.273438 40.429688 52.238281 40.597656 52.238281 40.773438 C 52.238281 40.949219 52.273438 41.121094 52.34375 41.28125 C 52.417969 41.441406 52.519531 41.578125 52.652344 41.695312 C 52.785156 41.8125 52.933594 41.898438 53.105469 41.949219 C 53.273438 42.003906 53.445312 42.019531 53.621094 41.996094 L 68.957031 41.996094 C 69.117188 41.996094 69.277344 41.964844 69.425781 41.902344 C 69.578125 41.839844 69.710938 41.75 69.824219 41.636719 C 69.941406 41.519531 70.03125 41.386719 70.09375 41.234375 C 70.15625 41.085938 70.1875 40.929688 70.1875 40.765625 L 70.1875 20.617188 C 70.183594 20.453125 70.152344 20.296875 70.089844 20.148438 C 70.023438 19.996094 69.933594 19.867188 69.820312 19.75 C 69.707031 19.636719 69.574219 19.546875 69.421875 19.484375 C 69.273438 19.417969 69.117188 19.386719 68.957031 19.382812 Z M 68.957031 19.382812 " fill-opacity="1" fill-rule="nonzero"/><path fill="#ffffff" d="M 30.28125 34.644531 C 29.332031 34.644531 28.394531 34.738281 27.460938 34.921875 C 26.53125 35.109375 25.628906 35.382812 24.753906 35.746094 C 23.878906 36.109375 23.046875 36.550781 22.257812 37.078125 C 21.46875 37.605469 20.738281 38.203125 20.070312 38.875 C 19.398438 39.546875 18.800781 40.273438 18.273438 41.0625 C 17.746094 41.851562 17.300781 42.683594 16.9375 43.558594 C 16.574219 44.4375 16.300781 45.339844 16.117188 46.269531 C 15.933594 47.199219 15.839844 48.136719 15.839844 49.085938 C 15.839844 50.035156 15.933594 50.972656 16.117188 51.902344 C 16.300781 52.832031 16.574219 53.734375 16.9375 54.613281 C 17.300781 55.488281 17.746094 56.320312 18.273438 57.109375 C 18.800781 57.898438 19.398438 58.625 20.070312 59.296875 C 20.738281 59.96875 21.46875 60.566406 22.257812 61.09375 C 23.046875 61.621094 23.878906 62.0625 24.753906 62.425781 C 25.628906 62.789062 26.53125 63.0625 27.460938 63.25 C 28.394531 63.433594 29.332031 63.527344 30.28125 63.527344 C 31.226562 63.527344 32.167969 63.433594 33.097656 63.25 C 34.027344 63.0625 34.929688 62.789062 35.804688 62.425781 C 36.683594 62.0625 37.515625 61.621094 38.300781 61.09375 C 39.089844 60.566406 39.820312 59.96875 40.492188 59.296875 C 41.160156 58.625 41.757812 57.898438 42.285156 57.109375 C 42.8125 56.320312 43.257812 55.488281 43.621094 54.613281 C 43.984375 53.734375 44.257812 52.832031 44.441406 51.902344 C 44.628906 50.972656 44.71875 50.035156 44.71875 49.085938 C 44.71875 48.136719 44.625 47.199219 44.441406 46.269531 C 44.253906 45.339844 43.980469 44.4375 43.617188 43.5625 C 43.253906 42.6875 42.808594 41.855469 42.28125 41.066406 C 41.753906 40.28125 41.15625 39.550781 40.484375 38.878906 C 39.816406 38.210938 39.085938 37.613281 38.296875 37.085938 C 37.511719 36.558594 36.679688 36.113281 35.804688 35.75 C 34.925781 35.386719 34.023438 35.113281 33.097656 34.925781 C 32.167969 34.742188 31.226562 34.648438 30.28125 34.644531 Z M 18.300781 49.085938 C 18.300781 48.296875 18.375 47.515625 18.53125 46.742188 C 18.683594 45.96875 18.910156 45.21875 19.210938 44.492188 C 19.511719 43.761719 19.878906 43.070312 20.316406 42.414062 C 20.753906 41.757812 21.25 41.152344 21.808594 40.59375 C 22.363281 40.035156 22.96875 39.539062 23.625 39.097656 C 24.28125 38.660156 24.972656 38.289062 25.699219 37.988281 C 26.425781 37.683594 27.175781 37.457031 27.949219 37.304688 C 28.722656 37.148438 29.503906 37.070312 30.292969 37.070312 C 31.082031 37.070312 31.859375 37.148438 32.632812 37.300781 C 33.40625 37.453125 34.15625 37.679688 34.886719 37.984375 C 35.613281 38.285156 36.304688 38.652344 36.960938 39.089844 C 37.617188 39.53125 38.222656 40.027344 38.78125 40.585938 C 39.339844 41.140625 39.835938 41.75 40.273438 42.402344 C 40.710938 43.058594 41.082031 43.75 41.382812 44.480469 C 41.683594 45.207031 41.910156 45.957031 42.066406 46.730469 C 42.21875 47.503906 42.296875 48.285156 42.292969 49.074219 C 42.292969 49.863281 42.21875 50.640625 42.0625 51.414062 C 41.910156 52.1875 41.679688 52.9375 41.378906 53.667969 C 41.074219 54.394531 40.707031 55.085938 40.265625 55.742188 C 39.828125 56.394531 39.332031 57 38.773438 57.558594 C 38.214844 58.117188 37.609375 58.613281 36.953125 59.050781 C 36.296875 59.488281 35.601562 59.855469 34.875 60.15625 C 34.144531 60.457031 33.394531 60.683594 32.621094 60.835938 C 31.847656 60.988281 31.066406 61.066406 30.28125 61.0625 C 29.492188 61.0625 28.714844 60.984375 27.945312 60.832031 C 27.171875 60.675781 26.425781 60.449219 25.699219 60.148438 C 24.972656 59.84375 24.285156 59.476562 23.628906 59.039062 C 22.976562 58.601562 22.371094 58.105469 21.816406 57.550781 C 21.261719 56.992188 20.761719 56.390625 20.328125 55.734375 C 19.890625 55.082031 19.519531 54.394531 19.21875 53.667969 C 18.917969 52.941406 18.691406 52.191406 18.535156 51.421875 C 18.382812 50.652344 18.304688 49.871094 18.300781 49.085938 Z M 18.300781 49.085938 " fill-opacity="1" fill-rule="nonzero"/><path fill="#ffffff" d="M 54.960938 43.917969 L 51.679688 43.917969 C 51.324219 43.910156 50.972656 43.855469 50.632812 43.742188 C 50.296875 43.632812 49.980469 43.476562 49.6875 43.273438 C 49.394531 43.066406 49.136719 42.824219 48.917969 42.542969 C 48.699219 42.261719 48.523438 41.957031 48.394531 41.625 C 48.128906 40.949219 48.066406 40.253906 48.203125 39.542969 C 48.34375 38.832031 48.660156 38.210938 49.160156 37.6875 L 51.472656 35.390625 C 51.707031 35.144531 51.824219 34.851562 51.828125 34.515625 C 51.828125 34.179688 51.707031 33.894531 51.472656 33.65625 L 45.875 28.058594 C 45.644531 27.8125 45.359375 27.6875 45.019531 27.6875 C 44.675781 27.691406 44.382812 27.816406 44.140625 28.058594 L 41.699219 30.222656 C 41.015625 30.898438 40.195312 31.226562 39.234375 31.210938 C 38.71875 31.210938 38.21875 31.113281 37.742188 30.914062 C 37.402344 30.789062 37.089844 30.617188 36.804688 30.398438 C 36.515625 30.175781 36.269531 29.917969 36.058594 29.625 C 35.847656 29.332031 35.6875 29.011719 35.574219 28.667969 C 35.460938 28.324219 35.398438 27.972656 35.390625 27.613281 L 35.390625 24.402344 C 35.390625 24.238281 35.359375 24.082031 35.296875 23.933594 C 35.234375 23.78125 35.148438 23.648438 35.03125 23.53125 C 34.914062 23.417969 34.78125 23.328125 34.632812 23.265625 C 34.480469 23.203125 34.324219 23.171875 34.160156 23.171875 L 26.34375 23.171875 C 26.179688 23.175781 26.023438 23.207031 25.875 23.269531 C 25.726562 23.332031 25.59375 23.421875 25.476562 23.539062 C 25.363281 23.652344 25.273438 23.785156 25.210938 23.933594 C 25.148438 24.085938 25.113281 24.242188 25.113281 24.402344 L 25.113281 27.6875 C 25.105469 28.042969 25.046875 28.390625 24.9375 28.726562 C 24.828125 29.066406 24.671875 29.378906 24.472656 29.671875 C 24.269531 29.964844 24.027344 30.222656 23.75 30.441406 C 23.472656 30.664062 23.167969 30.839844 22.835938 30.96875 C 22.332031 31.171875 21.8125 31.28125 21.269531 31.289062 C 20.300781 31.269531 19.480469 30.914062 18.804688 30.222656 L 16.492188 27.984375 C 16.378906 27.867188 16.246094 27.773438 16.097656 27.707031 C 15.945312 27.644531 15.789062 27.613281 15.625 27.613281 C 15.460938 27.613281 15.304688 27.644531 15.152344 27.707031 C 15.003906 27.773438 14.871094 27.867188 14.757812 27.984375 L 9.160156 33.582031 C 9.046875 33.699219 8.960938 33.832031 8.902344 33.980469 C 8.839844 34.132812 8.808594 34.289062 8.808594 34.449219 C 8.808594 34.613281 8.839844 34.765625 8.902344 34.917969 C 8.960938 35.066406 9.046875 35.199219 9.160156 35.316406 L 11.492188 37.6875 C 11.742188 37.945312 11.945312 38.234375 12.109375 38.550781 C 12.269531 38.871094 12.382812 39.203125 12.445312 39.558594 C 12.507812 39.910156 12.519531 40.261719 12.476562 40.617188 C 12.4375 40.972656 12.34375 41.3125 12.203125 41.640625 C 11.933594 42.332031 11.496094 42.890625 10.894531 43.320312 C 10.292969 43.75 9.621094 43.980469 8.878906 44.011719 L 5.617188 44.011719 C 5.460938 44.007812 5.308594 44.035156 5.164062 44.089844 C 5.015625 44.144531 4.886719 44.226562 4.773438 44.332031 C 4.65625 44.4375 4.566406 44.5625 4.5 44.703125 C 4.433594 44.84375 4.394531 44.992188 4.382812 45.148438 L 4.382812 53.042969 C 4.382812 53.203125 4.414062 53.363281 4.476562 53.511719 C 4.539062 53.664062 4.628906 53.796875 4.746094 53.910156 C 4.859375 54.027344 4.992188 54.117188 5.144531 54.179688 C 5.296875 54.242188 5.453125 54.273438 5.617188 54.273438 L 8.878906 54.273438 C 9.234375 54.277344 9.582031 54.335938 9.917969 54.441406 C 10.257812 54.550781 10.570312 54.703125 10.863281 54.90625 C 11.15625 55.105469 11.410156 55.34375 11.632812 55.621094 C 11.855469 55.898438 12.03125 56.199219 12.164062 56.53125 C 12.316406 56.859375 12.417969 57.207031 12.46875 57.566406 C 12.515625 57.929688 12.511719 58.289062 12.453125 58.648438 C 12.390625 59.007812 12.28125 59.351562 12.117188 59.675781 C 11.953125 60.003906 11.746094 60.296875 11.492188 60.558594 L 9.179688 62.875 C 9.066406 62.988281 8.980469 63.121094 8.917969 63.273438 C 8.859375 63.421875 8.828125 63.578125 8.828125 63.742188 C 8.828125 63.902344 8.859375 64.058594 8.917969 64.207031 C 8.980469 64.359375 9.066406 64.492188 9.179688 64.609375 L 14.777344 70.207031 C 14.890625 70.320312 15.023438 70.40625 15.175781 70.46875 C 15.324219 70.53125 15.480469 70.5625 15.644531 70.5625 C 15.804688 70.5625 15.960938 70.53125 16.113281 70.46875 C 16.261719 70.40625 16.394531 70.320312 16.511719 70.207031 L 18.824219 67.890625 C 19.507812 67.21875 20.328125 66.882812 21.289062 66.882812 C 21.804688 66.878906 22.304688 66.980469 22.78125 67.183594 C 23.464844 67.457031 24.019531 67.890625 24.449219 68.496094 C 24.875 69.097656 25.101562 69.765625 25.128906 70.503906 L 25.128906 73.769531 C 25.132812 73.929688 25.164062 74.085938 25.230469 74.238281 C 25.292969 74.386719 25.382812 74.519531 25.496094 74.632812 C 25.613281 74.75 25.742188 74.839844 25.894531 74.902344 C 26.042969 74.964844 26.199219 74.996094 26.363281 75 L 34.234375 75 C 34.398438 75 34.554688 74.96875 34.707031 74.90625 C 34.855469 74.84375 34.992188 74.753906 35.105469 74.640625 C 35.222656 74.523438 35.308594 74.390625 35.371094 74.238281 C 35.433594 74.089844 35.464844 73.933594 35.464844 73.769531 L 35.464844 70.484375 C 35.472656 70.128906 35.53125 69.78125 35.640625 69.441406 C 35.75 69.101562 35.90625 68.785156 36.113281 68.492188 C 36.316406 68.199219 36.558594 67.945312 36.839844 67.722656 C 37.121094 67.503906 37.429688 67.328125 37.761719 67.203125 C 38.261719 66.980469 38.78125 66.871094 39.328125 66.867188 C 40.285156 66.855469 41.101562 67.191406 41.773438 67.875 L 44.085938 70.1875 C 44.328125 70.425781 44.621094 70.542969 44.960938 70.542969 C 45.300781 70.546875 45.585938 70.429688 45.820312 70.1875 L 51.417969 64.589844 C 51.535156 64.476562 51.625 64.34375 51.6875 64.191406 C 51.75 64.042969 51.785156 63.886719 51.785156 63.722656 C 51.785156 63.558594 51.75 63.402344 51.6875 63.25 C 51.625 63.101562 51.535156 62.96875 51.417969 62.855469 L 49.160156 60.558594 C 48.910156 60.304688 48.703125 60.015625 48.542969 59.695312 C 48.378906 59.378906 48.265625 59.042969 48.207031 58.6875 C 48.144531 58.335938 48.136719 57.980469 48.179688 57.625 C 48.226562 57.269531 48.324219 56.929688 48.46875 56.605469 C 48.59375 56.265625 48.769531 55.953125 48.988281 55.664062 C 49.207031 55.378906 49.464844 55.128906 49.757812 54.921875 C 50.054688 54.710938 50.371094 54.550781 50.714844 54.433594 C 51.058594 54.320312 51.410156 54.261719 51.773438 54.253906 L 55.054688 54.253906 C 55.21875 54.25 55.371094 54.21875 55.519531 54.15625 C 55.671875 54.089844 55.800781 54 55.914062 53.886719 C 56.027344 53.769531 56.117188 53.640625 56.175781 53.488281 C 56.238281 53.339844 56.269531 53.183594 56.269531 53.023438 L 56.269531 45.148438 C 56.273438 44.976562 56.238281 44.8125 56.175781 44.65625 C 56.109375 44.5 56.011719 44.363281 55.886719 44.246094 C 55.765625 44.128906 55.621094 44.039062 55.460938 43.984375 C 55.296875 43.925781 55.132812 43.90625 54.960938 43.917969 Z M 43.5625 66.136719 C 43.007812 65.578125 42.367188 65.148438 41.640625 64.847656 C 40.910156 64.546875 40.152344 64.398438 39.367188 64.402344 C 38.523438 64.40625 37.714844 64.574219 36.941406 64.90625 C 36.375 65.125 35.855469 65.421875 35.378906 65.796875 C 34.902344 66.175781 34.492188 66.613281 34.148438 67.109375 C 33.804688 67.609375 33.539062 68.148438 33.359375 68.726562 C 33.175781 69.304688 33.082031 69.898438 33.078125 70.503906 L 33.078125 72.539062 L 27.574219 72.539062 L 27.574219 70.484375 C 27.578125 69.886719 27.492188 69.300781 27.320312 68.726562 C 27.148438 68.152344 26.894531 67.617188 26.5625 67.117188 C 26.230469 66.617188 25.832031 66.179688 25.371094 65.800781 C 24.90625 65.421875 24.398438 65.117188 23.84375 64.886719 C 23.042969 64.558594 22.210938 64.390625 21.34375 64.382812 C 20.558594 64.378906 19.800781 64.523438 19.070312 64.820312 C 18.34375 65.117188 17.703125 65.546875 17.144531 66.101562 L 15.578125 67.539062 L 11.847656 63.804688 L 13.285156 62.371094 C 13.707031 61.941406 14.054688 61.457031 14.332031 60.925781 C 14.609375 60.390625 14.804688 59.828125 14.914062 59.238281 C 15.023438 58.644531 15.042969 58.050781 14.976562 57.453125 C 14.910156 56.855469 14.753906 56.28125 14.515625 55.726562 C 14.296875 55.164062 14 54.640625 13.621094 54.164062 C 13.246094 53.691406 12.808594 53.28125 12.3125 52.933594 C 11.8125 52.589844 11.273438 52.328125 10.695312 52.144531 C 10.117188 51.960938 9.523438 51.871094 8.917969 51.867188 L 6.847656 51.867188 L 6.847656 46.363281 L 8.878906 46.363281 C 9.484375 46.347656 10.074219 46.246094 10.648438 46.0625 C 11.222656 45.875 11.757812 45.609375 12.257812 45.269531 C 12.753906 44.925781 13.195312 44.519531 13.574219 44.050781 C 13.953125 43.582031 14.257812 43.066406 14.488281 42.507812 C 14.71875 41.949219 14.867188 41.371094 14.925781 40.769531 C 14.988281 40.167969 14.964844 39.570312 14.851562 38.976562 C 14.738281 38.382812 14.546875 37.816406 14.269531 37.28125 C 13.992188 36.742188 13.644531 36.257812 13.226562 35.820312 L 11.847656 34.421875 L 15.578125 30.578125 L 17.070312 32.089844 C 17.628906 32.640625 18.273438 33.066406 19 33.363281 C 19.726562 33.660156 20.484375 33.808594 21.269531 33.804688 C 22.113281 33.800781 22.929688 33.636719 23.710938 33.320312 C 24.277344 33.101562 24.796875 32.800781 25.269531 32.425781 C 25.746094 32.046875 26.15625 31.609375 26.5 31.113281 C 26.84375 30.613281 27.105469 30.074219 27.289062 29.5 C 27.472656 28.921875 27.566406 28.328125 27.574219 27.722656 L 27.574219 25.671875 L 33.003906 25.671875 L 33.003906 27.722656 C 33.003906 28.324219 33.089844 28.910156 33.261719 29.480469 C 33.433594 30.054688 33.6875 30.589844 34.019531 31.089844 C 34.351562 31.585938 34.75 32.027344 35.210938 32.40625 C 35.675781 32.785156 36.183594 33.089844 36.734375 33.320312 C 37.539062 33.667969 38.378906 33.84375 39.253906 33.84375 C 40.0625 33.859375 40.839844 33.714844 41.589844 33.410156 C 42.339844 33.105469 42.996094 32.664062 43.5625 32.089844 L 45.019531 30.632812 L 48.863281 34.476562 L 47.292969 35.820312 C 46.882812 36.257812 46.542969 36.742188 46.269531 37.28125 C 46 37.816406 45.808594 38.378906 45.699219 38.96875 C 45.589844 39.558594 45.566406 40.152344 45.632812 40.75 C 45.695312 41.347656 45.839844 41.925781 46.070312 42.480469 C 46.300781 43.035156 46.605469 43.542969 46.980469 44.011719 C 47.359375 44.480469 47.792969 44.882812 48.289062 45.222656 C 48.78125 45.566406 49.316406 45.828125 49.886719 46.015625 C 50.457031 46.203125 51.042969 46.308594 51.640625 46.324219 L 53.695312 46.324219 L 53.695312 51.753906 L 51.640625 51.753906 C 51.042969 51.75 50.457031 51.835938 49.882812 52.007812 C 49.308594 52.179688 48.773438 52.433594 48.273438 52.765625 C 47.777344 53.097656 47.335938 53.496094 46.957031 53.960938 C 46.578125 54.421875 46.273438 54.929688 46.042969 55.484375 C 45.789062 56.046875 45.621094 56.636719 45.542969 57.25 C 45.46875 57.867188 45.488281 58.476562 45.597656 59.085938 C 45.710938 59.695312 45.910156 60.273438 46.199219 60.820312 C 46.488281 61.367188 46.855469 61.859375 47.292969 62.292969 L 48.75 63.730469 L 44.945312 67.539062 Z M 43.5625 66.136719 " fill-opacity="1" fill-rule="nonzero"/><path fill="#ffffff" d="M 68.957031 11.566406 L 14.851562 11.566406 C 14.6875 11.566406 14.53125 11.597656 14.378906 11.660156 C 14.230469 11.722656 14.09375 11.8125 13.980469 11.929688 C 13.863281 12.042969 13.777344 12.175781 13.714844 12.328125 C 13.652344 12.476562 13.621094 12.636719 13.621094 12.796875 C 13.621094 12.960938 13.652344 13.117188 13.714844 13.269531 C 13.777344 13.421875 13.863281 13.554688 13.980469 13.667969 C 14.09375 13.785156 14.230469 13.875 14.378906 13.9375 C 14.53125 14 14.6875 14.03125 14.851562 14.03125 L 68.957031 14.03125 C 69.117188 14.03125 69.277344 14 69.425781 13.9375 C 69.578125 13.875 69.710938 13.785156 69.824219 13.667969 C 69.941406 13.554688 70.03125 13.421875 70.09375 13.269531 C 70.15625 13.117188 70.1875 12.960938 70.1875 12.796875 C 70.1875 12.636719 70.15625 12.476562 70.09375 12.328125 C 70.03125 12.175781 69.941406 12.042969 69.824219 11.929688 C 69.710938 11.8125 69.578125 11.722656 69.425781 11.660156 C 69.277344 11.597656 69.117188 11.566406 68.957031 11.566406 Z M 68.957031 11.566406 " fill-opacity="1" fill-rule="nonzero"/><path fill="#ffffff" d="M 66.195312 8.375 C 66.457031 8.378906 66.71875 8.355469 66.980469 8.308594 C 67.238281 8.257812 67.488281 8.183594 67.734375 8.085938 C 67.980469 7.984375 68.210938 7.863281 68.433594 7.71875 C 68.652344 7.574219 68.859375 7.410156 69.046875 7.222656 C 69.234375 7.039062 69.402344 6.835938 69.550781 6.617188 C 69.699219 6.402344 69.824219 6.167969 69.925781 5.925781 C 70.027344 5.683594 70.105469 5.433594 70.160156 5.175781 C 70.214844 4.914062 70.242188 4.65625 70.242188 4.390625 C 70.242188 4.125 70.21875 3.867188 70.171875 3.605469 C 70.121094 3.347656 70.046875 3.09375 69.945312 2.851562 C 69.847656 2.605469 69.722656 2.375 69.578125 2.152344 C 69.433594 1.933594 69.265625 1.730469 69.082031 1.542969 C 68.894531 1.355469 68.691406 1.1875 68.472656 1.039062 C 68.253906 0.894531 68.023438 0.769531 67.78125 0.664062 C 67.539062 0.5625 67.285156 0.488281 67.027344 0.433594 C 66.769531 0.382812 66.507812 0.355469 66.242188 0.355469 C 65.980469 0.355469 65.71875 0.378906 65.460938 0.429688 C 65.199219 0.480469 64.949219 0.554688 64.703125 0.65625 C 64.460938 0.757812 64.230469 0.878906 64.007812 1.027344 C 63.789062 1.171875 63.585938 1.339844 63.398438 1.523438 C 63.210938 1.710938 63.046875 1.914062 62.898438 2.132812 C 62.753906 2.351562 62.628906 2.585938 62.527344 2.828125 C 62.425781 3.070312 62.347656 3.324219 62.296875 3.582031 C 62.246094 3.839844 62.21875 4.101562 62.21875 4.367188 C 62.21875 4.628906 62.242188 4.886719 62.292969 5.144531 C 62.34375 5.402344 62.417969 5.652344 62.515625 5.894531 C 62.617188 6.136719 62.738281 6.367188 62.882812 6.585938 C 63.027344 6.804688 63.191406 7.007812 63.375 7.195312 C 63.5625 7.378906 63.761719 7.546875 63.980469 7.695312 C 64.195312 7.839844 64.425781 7.964844 64.667969 8.066406 C 64.910156 8.167969 65.160156 8.246094 65.414062 8.296875 C 65.671875 8.347656 65.933594 8.375 66.195312 8.375 Z M 66.195312 5.914062 C 65.992188 5.90625 65.796875 5.855469 65.613281 5.769531 C 65.429688 5.683594 65.269531 5.566406 65.128906 5.417969 C 64.992188 5.269531 64.886719 5.097656 64.816406 4.910156 C 64.746094 4.71875 64.714844 4.519531 64.722656 4.316406 C 64.726562 4.117188 64.773438 3.921875 64.855469 3.734375 C 64.9375 3.550781 65.054688 3.386719 65.199219 3.246094 C 65.347656 3.105469 65.515625 3 65.703125 2.925781 C 65.894531 2.851562 66.089844 2.816406 66.292969 2.820312 C 66.496094 2.820312 66.691406 2.863281 66.878906 2.945312 C 67.0625 3.023438 67.230469 3.136719 67.371094 3.28125 C 67.515625 3.425781 67.625 3.589844 67.699219 3.777344 C 67.777344 3.96875 67.816406 4.164062 67.816406 4.367188 C 67.824219 4.582031 67.789062 4.792969 67.710938 4.992188 C 67.628906 5.195312 67.511719 5.371094 67.359375 5.523438 C 67.203125 5.675781 67.027344 5.792969 66.824219 5.871094 C 66.621094 5.949219 66.410156 5.980469 66.195312 5.96875 Z M 66.195312 5.914062 " fill-opacity="1" fill-rule="nonzero"/><path fill="#ffffff" d="M 22.796875 21.847656 C 22.960938 21.847656 23.117188 21.816406 23.269531 21.753906 C 23.421875 21.691406 23.554688 21.601562 23.667969 21.484375 C 23.785156 21.371094 23.871094 21.238281 23.933594 21.085938 C 23.996094 20.9375 24.027344 20.777344 24.027344 20.617188 C 24.027344 20.453125 23.996094 20.296875 23.933594 20.144531 C 23.871094 19.992188 23.785156 19.859375 23.667969 19.746094 C 23.554688 19.628906 23.421875 19.539062 23.269531 19.476562 C 23.117188 19.414062 22.960938 19.382812 22.796875 19.382812 L 14.777344 19.382812 C 14.613281 19.382812 14.457031 19.414062 14.304688 19.476562 C 14.15625 19.539062 14.023438 19.628906 13.90625 19.746094 C 13.789062 19.859375 13.703125 19.992188 13.640625 20.144531 C 13.578125 20.296875 13.546875 20.453125 13.546875 20.617188 C 13.546875 20.777344 13.578125 20.9375 13.640625 21.085938 C 13.703125 21.238281 13.789062 21.371094 13.90625 21.484375 C 14.023438 21.601562 14.15625 21.691406 14.304688 21.753906 C 14.457031 21.816406 14.613281 21.847656 14.777344 21.847656 Z M 22.796875 21.847656 " fill-opacity="1" fill-rule="nonzero"/></svg>