<svg xmlns="http://www.w3.org/2000/svg" xmlns:xlink="http://www.w3.org/1999/xlink" width="100" zoomAndPan="magnify" viewBox="0 0 75 74.999997" height="100" preserveAspectRatio="xMidYMid meet" version="1.0"><defs><clipPath id="fff32b0340"><path d="M 0.828125 5.054688 L 73.578125 5.054688 L 73.578125 60 L 0.828125 60 Z M 0.828125 5.054688 " clip-rule="nonzero"/></clipPath><clipPath id="18c3b33f4e"><path d="M 0.828125 46 L 73.578125 46 L 73.578125 48 L 0.828125 48 Z M 0.828125 46 " clip-rule="nonzero"/></clipPath><clipPath id="26b0bd0bc9"><path d="M 15 65 L 59 65 L 59 73.304688 L 15 73.304688 Z M 15 65 " clip-rule="nonzero"/></clipPath></defs><path fill="#ffffff" d="M 36.261719 37.769531 C 36.164062 37.769531 36.070312 37.753906 35.972656 37.71875 C 35.546875 37.5625 35.328125 37.085938 35.488281 36.660156 L 43.273438 15.660156 C 43.429688 15.234375 43.902344 15.015625 44.332031 15.175781 C 44.761719 15.332031 44.976562 15.808594 44.820312 16.234375 L 37.035156 37.234375 C 36.914062 37.566406 36.597656 37.769531 36.261719 37.769531 Z M 36.261719 37.769531 " fill-opacity="1" fill-rule="nonzero"/><path fill="#ffffff" d="M 17.746094 33.855469 C 15.058594 33.855469 12.871094 31.78125 12.871094 29.238281 L 12.871094 19.960938 C 12.871094 19.503906 13.242188 19.132812 13.695312 19.132812 C 14.152344 19.132812 14.519531 19.503906 14.519531 19.960938 L 14.519531 29.238281 C 14.519531 30.875 15.964844 32.207031 17.746094 32.207031 C 19.523438 32.207031 20.96875 30.875 20.96875 29.238281 L 20.96875 19.960938 C 20.96875 19.503906 21.339844 19.132812 21.796875 19.132812 C 22.25 19.132812 22.621094 19.503906 22.621094 19.960938 L 22.621094 29.238281 C 22.621094 31.78125 20.433594 33.855469 17.746094 33.855469 Z M 17.746094 33.855469 " fill-opacity="1" fill-rule="nonzero"/><path fill="#ffffff" d="M 25.707031 33.855469 C 25.574219 33.855469 25.441406 33.824219 25.316406 33.757812 C 24.914062 33.539062 24.765625 33.039062 24.980469 32.640625 L 32.074219 19.472656 C 32.289062 19.074219 32.789062 18.921875 33.191406 19.140625 C 33.59375 19.355469 33.742188 19.855469 33.527344 20.257812 L 26.433594 33.421875 C 26.285156 33.695312 26 33.855469 25.707031 33.855469 Z M 25.707031 33.855469 " fill-opacity="1" fill-rule="nonzero"/><path fill="#ffffff" d="M 32.800781 33.855469 C 32.507812 33.855469 32.222656 33.699219 32.074219 33.421875 L 24.980469 20.257812 C 24.765625 19.855469 24.914062 19.355469 25.316406 19.140625 C 25.71875 18.921875 26.21875 19.074219 26.433594 19.472656 L 33.527344 32.640625 C 33.742188 33.039062 33.59375 33.539062 33.191406 33.757812 C 33.066406 33.824219 32.933594 33.855469 32.800781 33.855469 Z M 32.800781 33.855469 " fill-opacity="1" fill-rule="nonzero"/><path fill="#ffffff" d="M 51.554688 33.855469 C 48.867188 33.855469 46.679688 31.78125 46.679688 29.238281 L 46.679688 19.960938 C 46.679688 19.503906 47.050781 19.132812 47.507812 19.132812 C 47.960938 19.132812 48.332031 19.503906 48.332031 19.960938 L 48.332031 29.238281 C 48.332031 30.875 49.777344 32.207031 51.554688 32.207031 C 53.335938 32.207031 54.78125 30.875 54.78125 29.238281 L 54.78125 19.960938 C 54.78125 19.503906 55.148438 19.132812 55.605469 19.132812 C 56.0625 19.132812 56.429688 19.503906 56.429688 19.960938 L 56.429688 29.238281 C 56.429688 31.78125 54.242188 33.855469 51.554688 33.855469 Z M 51.554688 33.855469 " fill-opacity="1" fill-rule="nonzero"/><path fill="#ffffff" d="M 60.882812 34.75 C 60.425781 34.75 60.058594 34.378906 60.058594 33.925781 L 60.050781 18.972656 C 60.050781 18.515625 60.421875 18.144531 60.878906 18.144531 C 61.332031 18.144531 61.703125 18.515625 61.703125 18.972656 L 61.707031 33.925781 C 61.710938 34.378906 61.339844 34.75 60.882812 34.75 Z M 60.882812 34.75 " fill-opacity="1" fill-rule="nonzero"/><path fill="#ffffff" d="M 29.332031 55.738281 C 27.828125 55.738281 26.601562 54.515625 26.601562 53.007812 C 26.601562 51.503906 27.828125 50.28125 29.332031 50.28125 C 30.835938 50.28125 32.0625 51.503906 32.0625 53.007812 C 32.0625 54.515625 30.835938 55.738281 29.332031 55.738281 Z M 29.332031 51.929688 C 28.734375 51.929688 28.253906 52.414062 28.253906 53.007812 C 28.253906 53.605469 28.734375 54.089844 29.332031 54.089844 C 29.925781 54.089844 30.410156 53.605469 30.410156 53.007812 C 30.410156 52.414062 29.925781 51.929688 29.332031 51.929688 Z M 29.332031 51.929688 " fill-opacity="1" fill-rule="nonzero"/><path fill="#ffffff" d="M 37.289062 55.738281 C 35.785156 55.738281 34.5625 54.515625 34.5625 53.007812 C 34.5625 51.503906 35.785156 50.28125 37.289062 50.28125 C 38.796875 50.28125 40.019531 51.503906 40.019531 53.007812 C 40.019531 54.515625 38.796875 55.738281 37.289062 55.738281 Z M 37.289062 51.929688 C 36.695312 51.929688 36.210938 52.414062 36.210938 53.007812 C 36.210938 53.605469 36.695312 54.089844 37.289062 54.089844 C 37.886719 54.089844 38.371094 53.605469 38.371094 53.007812 C 38.371094 52.414062 37.886719 51.929688 37.289062 51.929688 Z M 37.289062 51.929688 " fill-opacity="1" fill-rule="nonzero"/><path fill="#ffffff" d="M 45.25 55.738281 C 43.742188 55.738281 42.519531 54.515625 42.519531 53.007812 C 42.519531 51.503906 43.742188 50.28125 45.25 50.28125 C 46.753906 50.28125 47.976562 51.503906 47.976562 53.007812 C 47.976562 54.515625 46.753906 55.738281 45.25 55.738281 Z M 45.25 51.929688 C 44.652344 51.929688 44.167969 52.414062 44.167969 53.007812 C 44.167969 53.605469 44.652344 54.089844 45.25 54.089844 C 45.84375 54.089844 46.328125 53.605469 46.328125 53.007812 C 46.328125 52.414062 45.84375 51.929688 45.25 51.929688 Z M 45.25 51.929688 " fill-opacity="1" fill-rule="nonzero"/><g clip-path="url(#fff32b0340)"><path fill="#ffffff" d="M 68.636719 59.867188 L 5.945312 59.867188 C 3.121094 59.867188 0.820312 57.570312 0.820312 54.746094 L 0.820312 10.214844 C 0.820312 7.394531 3.117188 5.09375 5.945312 5.09375 L 68.636719 5.09375 C 71.460938 5.09375 73.757812 7.390625 73.757812 10.214844 L 73.757812 54.746094 C 73.757812 57.570312 71.460938 59.867188 68.636719 59.867188 Z M 5.945312 6.746094 C 4.03125 6.746094 2.472656 8.300781 2.472656 10.214844 L 2.472656 54.746094 C 2.472656 56.660156 4.03125 58.21875 5.945312 58.21875 L 68.636719 58.21875 C 70.550781 58.21875 72.109375 56.660156 72.109375 54.746094 L 72.109375 10.214844 C 72.109375 8.300781 70.550781 6.746094 68.636719 6.746094 Z M 5.945312 6.746094 " fill-opacity="1" fill-rule="nonzero"/></g><g clip-path="url(#18c3b33f4e)"><path fill="#ffffff" d="M 72.933594 47.800781 L 1.648438 47.800781 C 1.191406 47.800781 0.820312 47.429688 0.820312 46.972656 C 0.820312 46.519531 1.191406 46.148438 1.648438 46.148438 L 72.933594 46.148438 C 73.390625 46.148438 73.757812 46.519531 73.757812 46.972656 C 73.757812 47.429688 73.390625 47.800781 72.933594 47.800781 Z M 72.933594 47.800781 " fill-opacity="1" fill-rule="nonzero"/></g><path fill="#ffffff" d="M 50.472656 67.484375 C 50.019531 67.484375 49.648438 67.117188 49.648438 66.660156 L 49.648438 59.042969 C 49.648438 58.589844 50.019531 58.21875 50.472656 58.21875 C 50.929688 58.21875 51.296875 58.589844 51.296875 59.042969 L 51.296875 66.660156 C 51.296875 67.117188 50.929688 67.484375 50.472656 67.484375 Z M 24.5 67.484375 C 24.042969 67.484375 23.671875 67.117188 23.671875 66.660156 L 23.671875 59.042969 C 23.671875 58.589844 24.042969 58.21875 24.5 58.21875 C 24.953125 58.21875 25.324219 58.589844 25.324219 59.042969 L 25.324219 66.660156 C 25.324219 67.117188 24.953125 67.484375 24.5 67.484375 Z M 24.5 67.484375 " fill-opacity="1" fill-rule="nonzero"/><g clip-path="url(#26b0bd0bc9)"><path fill="#ffffff" d="M 54.964844 73.34375 L 19.613281 73.34375 C 17.542969 73.34375 15.859375 71.660156 15.859375 69.589844 C 15.859375 67.519531 17.546875 65.835938 19.613281 65.835938 L 54.964844 65.835938 C 57.035156 65.835938 58.71875 67.523438 58.71875 69.589844 C 58.722656 71.660156 57.035156 73.34375 54.964844 73.34375 Z M 19.613281 67.484375 C 18.457031 67.484375 17.511719 68.429688 17.511719 69.589844 C 17.511719 70.75 18.457031 71.695312 19.613281 71.695312 L 54.964844 71.695312 C 56.125 71.695312 57.070312 70.75 57.070312 69.589844 C 57.070312 68.429688 56.125 67.484375 54.964844 67.484375 Z M 19.613281 67.484375 " fill-opacity="1" fill-rule="nonzero"/></g></svg>