<svg xmlns="http://www.w3.org/2000/svg" xmlns:xlink="http://www.w3.org/1999/xlink" width="100" zoomAndPan="magnify" viewBox="0 0 75 74.999997" height="100" preserveAspectRatio="xMidYMid meet" version="1.0"><defs><clipPath id="e78f270af3"><path d="M 0 3.1875 L 75 3.1875 L 75 73.6875 L 0 73.6875 Z M 0 3.1875 " clip-rule="nonzero"/></clipPath></defs><path fill="#ffffff" d="M 44.449219 62.425781 C 44.511719 62.382812 44.632812 62.320312 44.785156 62.320312 C 44.882812 62.320312 44.996094 62.347656 45.117188 62.425781 C 46.582031 63.398438 47.480469 64.75 47.792969 66.4375 C 47.800781 66.476562 47.804688 66.515625 47.804688 66.554688 C 47.839844 67.140625 47.734375 67.695312 47.554688 67.894531 C 47.519531 67.933594 47.480469 67.96875 47.363281 67.972656 C 47.289062 67.976562 47.199219 67.957031 47.097656 67.917969 C 46.585938 67.722656 44.871094 66.78125 44.1875 63.042969 C 44.121094 62.683594 44.347656 62.488281 44.449219 62.425781 Z M 46.433594 69.625 C 46.742188 69.742188 47.046875 69.800781 47.347656 69.800781 C 47.382812 69.800781 47.417969 69.800781 47.453125 69.800781 C 48.035156 69.769531 48.539062 69.535156 48.914062 69.117188 C 49.625 68.324219 49.667969 67.105469 49.632812 66.453125 C 49.625 66.335938 49.609375 66.21875 49.589844 66.105469 C 49.191406 63.941406 47.992188 62.144531 46.128906 60.90625 C 45.300781 60.355469 44.273438 60.351562 43.445312 60.898438 C 42.613281 61.445312 42.210938 62.394531 42.390625 63.371094 C 43.21875 67.917969 45.492188 69.257812 46.433594 69.625 " fill-opacity="1" fill-rule="nonzero"/><g clip-path="url(#e78f270af3)"><path fill="#ffffff" d="M 73.144531 34.988281 L 68.328125 34.988281 L 68.328125 30.886719 L 73.144531 30.886719 Z M 45.886719 32.289062 C 49.40625 25.128906 46.234375 20.804688 46.097656 20.625 C 45.902344 20.367188 45.589844 20.234375 45.269531 20.265625 C 44.953125 20.300781 44.675781 20.5 44.539062 20.789062 L 37.9375 34.988281 L 35.089844 34.988281 L 35.089844 30.886719 L 37.792969 30.886719 C 38.296875 30.886719 38.707031 30.476562 38.707031 29.972656 C 38.707031 29.46875 38.296875 29.058594 37.792969 29.058594 L 21.796875 29.058594 L 21.796875 10.953125 L 39.910156 10.953125 L 39.910156 22.746094 C 39.910156 23.253906 40.320312 23.660156 40.824219 23.660156 C 41.328125 23.660156 41.738281 23.253906 41.738281 22.746094 L 41.738281 10.953125 L 59.851562 10.953125 L 59.851562 29.058594 L 49.492188 29.058594 C 48.988281 29.058594 48.578125 29.46875 48.578125 29.972656 C 48.578125 30.476562 48.988281 30.886719 49.492188 30.886719 L 53.203125 30.886719 L 53.203125 34.988281 L 44.488281 34.988281 Z M 41.152344 53.914062 C 42.398438 55.960938 44.015625 57.6875 45.957031 59.046875 C 47.53125 60.148438 48.792969 61.390625 49.710938 62.742188 C 50.804688 64.34375 51.257812 66.253906 50.992188 68.113281 C 50.792969 69.503906 50.222656 70.492188 49.308594 71.058594 C 48.632812 71.472656 47.773438 71.601562 46.890625 71.421875 C 42.988281 70.628906 41.835938 67.164062 41.523438 65.714844 C 41.347656 64.902344 41.144531 64.109375 40.925781 63.351562 C 39.527344 58.542969 36.574219 51.246094 36.449219 50.9375 C 36.214844 50.367188 36.203125 49.730469 36.417969 49.148438 L 37.238281 46.886719 L 41.136719 53.882812 C 41.140625 53.894531 41.148438 53.902344 41.152344 53.914062 Z M 32.253906 36.816406 L 36.015625 44.902344 L 35.210938 47.109375 L 29.875 36.816406 Z M 1.855469 30.886719 L 6.671875 30.886719 L 6.671875 34.988281 L 1.855469 34.988281 Z M 1.855469 5.023438 L 6.671875 5.023438 L 6.671875 9.125 L 1.855469 9.125 Z M 73.144531 9.125 L 68.328125 9.125 L 68.328125 5.023438 L 73.144531 5.023438 Z M 61.679688 29.058594 L 61.679688 10.953125 L 73.144531 10.953125 L 73.144531 29.058594 Z M 61.679688 30.886719 L 66.5 30.886719 L 66.5 34.988281 L 61.679688 34.988281 Z M 61.679688 9.125 L 61.679688 5.023438 L 66.5 5.023438 L 66.5 9.125 Z M 55.03125 5.023438 L 59.851562 5.023438 L 59.851562 9.125 L 55.03125 9.125 Z M 35.089844 5.023438 L 39.910156 5.023438 L 39.910156 9.125 L 35.089844 9.125 Z M 15.148438 30.886719 L 19.96875 30.886719 L 19.96875 34.988281 L 15.148438 34.988281 Z M 13.320312 30.886719 L 13.320312 34.988281 L 8.5 34.988281 L 8.5 30.886719 Z M 13.320312 9.125 L 8.5 9.125 L 8.5 5.023438 L 13.320312 5.023438 Z M 19.96875 9.125 L 15.148438 9.125 L 15.148438 5.023438 L 19.96875 5.023438 Z M 1.855469 10.953125 L 19.96875 10.953125 L 19.96875 29.058594 L 1.855469 29.058594 Z M 26.617188 34.988281 L 21.796875 34.988281 L 21.796875 30.886719 L 26.617188 30.886719 Z M 35.679688 39.847656 L 34.269531 36.816406 L 37.085938 36.816406 Z M 37.722656 44.0625 C 37.679688 44.019531 37.636719 43.980469 37.582031 43.945312 L 36.6875 42.015625 L 45.367188 23.34375 C 45.847656 24.957031 46.085938 27.738281 44.253906 31.46875 Z M 33.261719 30.886719 L 33.261719 34.988281 L 28.441406 34.988281 L 28.441406 30.886719 Z M 21.796875 9.125 L 21.796875 5.023438 L 26.617188 5.023438 L 26.617188 9.125 Z M 28.441406 9.125 L 28.441406 5.023438 L 33.261719 5.023438 L 33.261719 9.125 Z M 41.738281 9.125 L 41.738281 5.023438 L 46.558594 5.023438 L 46.558594 9.125 Z M 48.382812 9.125 L 48.382812 5.023438 L 53.203125 5.023438 L 53.203125 9.125 Z M 59.851562 30.886719 L 59.851562 34.988281 L 55.03125 34.988281 L 55.03125 30.886719 Z M 74.058594 3.195312 L 0.941406 3.195312 C 0.4375 3.195312 0.0273438 3.605469 0.0273438 4.109375 L 0.0273438 35.902344 C 0.0273438 36.40625 0.4375 36.816406 0.941406 36.816406 L 27.816406 36.816406 L 32.710938 46.257812 L 28.640625 52.964844 C 27.527344 54.792969 26.085938 56.335938 24.355469 57.546875 C 22.597656 58.777344 21.179688 60.175781 20.132812 61.710938 C 18.785156 63.695312 18.226562 66.0625 18.558594 68.375 C 18.90625 70.804688 20.128906 72.023438 21.09375 72.613281 C 21.859375 73.085938 22.753906 73.328125 23.695312 73.328125 C 24.070312 73.328125 24.449219 73.289062 24.832031 73.210938 C 29.925781 72.175781 31.316406 67.507812 31.621094 66.101562 C 31.789062 65.332031 31.980469 64.578125 32.1875 63.863281 C 32.8125 61.714844 33.609375 59.339844 34.5625 56.800781 L 34.667969 56.523438 C 34.84375 56.050781 34.605469 55.523438 34.132812 55.347656 C 33.660156 55.167969 33.132812 55.40625 32.957031 55.878906 L 32.851562 56.15625 C 32.851562 56.15625 32.851562 56.160156 32.851562 56.160156 C 31.882812 58.742188 31.070312 61.160156 30.433594 63.351562 C 30.210938 64.109375 30.011719 64.902344 29.835938 65.714844 C 29.519531 67.164062 28.367188 70.628906 24.464844 71.421875 C 23.582031 71.601562 22.726562 71.472656 22.050781 71.058594 C 21.132812 70.492188 20.566406 69.503906 20.367188 68.113281 C 20.097656 66.253906 20.554688 64.34375 21.644531 62.742188 C 22.566406 61.390625 23.828125 60.144531 25.402344 59.046875 C 27.34375 57.6875 28.960938 55.960938 30.203125 53.914062 L 33.695312 48.15625 L 34.457031 49.621094 C 34.394531 50.296875 34.492188 50.984375 34.753906 51.625 C 34.878906 51.929688 37.800781 59.144531 39.171875 63.863281 C 39.378906 64.578125 39.566406 65.332031 39.734375 66.101562 C 40.039062 67.507812 41.429688 72.175781 46.527344 73.210938 C 46.910156 73.289062 47.289062 73.328125 47.660156 73.328125 C 48.601562 73.328125 49.5 73.085938 50.265625 72.613281 C 51.226562 72.023438 52.453125 70.804688 52.800781 68.375 C 53.132812 66.0625 52.574219 63.695312 51.222656 61.710938 C 50.179688 60.175781 48.757812 58.777344 47.003906 57.546875 C 45.273438 56.339844 43.835938 54.804688 42.726562 52.976562 L 38.808594 45.945312 L 43.539062 36.816406 L 74.058594 36.816406 C 74.5625 36.816406 74.972656 36.40625 74.972656 35.902344 L 74.972656 4.109375 C 74.972656 3.605469 74.5625 3.195312 74.058594 3.195312 " fill-opacity="1" fill-rule="nonzero"/></g><path fill="#ffffff" d="M 27.171875 63.042969 C 26.488281 66.78125 24.769531 67.722656 24.261719 67.917969 C 24.160156 67.957031 24.070312 67.976562 23.996094 67.972656 C 23.878906 67.96875 23.835938 67.933594 23.804688 67.894531 C 23.621094 67.695312 23.519531 67.140625 23.550781 66.554688 C 23.554688 66.515625 23.558594 66.476562 23.566406 66.4375 C 23.875 64.75 24.777344 63.398438 26.242188 62.425781 C 26.542969 62.226562 26.808594 62.359375 26.90625 62.425781 C 27.007812 62.488281 27.234375 62.683594 27.171875 63.042969 Z M 25.230469 60.90625 C 23.363281 62.144531 22.167969 63.941406 21.769531 66.105469 C 21.746094 66.214844 21.734375 66.332031 21.726562 66.453125 C 21.6875 67.105469 21.734375 68.324219 22.445312 69.117188 C 22.816406 69.535156 23.324219 69.769531 23.902344 69.800781 C 23.902344 69.800781 23.90625 69.800781 23.90625 69.800781 C 23.941406 69.800781 23.976562 69.800781 24.011719 69.800781 C 24.308594 69.800781 24.617188 69.742188 24.925781 69.621094 C 25.863281 69.257812 28.136719 67.917969 28.96875 63.371094 C 29.148438 62.394531 28.742188 61.445312 27.914062 60.898438 C 27.085938 60.351562 26.054688 60.355469 25.230469 60.90625 " fill-opacity="1" fill-rule="nonzero"/></svg>