<svg xmlns="http://www.w3.org/2000/svg" xmlns:xlink="http://www.w3.org/1999/xlink" width="100" zoomAndPan="magnify" viewBox="0 0 75 74.999997" height="100" preserveAspectRatio="xMidYMid meet" version="1.0"><defs><clipPath id="904a16ab5a"><path d="M 1.675781 4.210938 L 75 4.210938 L 75 74.710938 L 1.675781 74.710938 Z M 1.675781 4.210938 " clip-rule="nonzero"/></clipPath></defs><g clip-path="url(#904a16ab5a)"><path fill="#ffffff" d="M 7.601562 10.554688 L 7.601562 10.453125 C 7.601562 9.804688 8.125 9.277344 8.777344 9.277344 C 9.425781 9.277344 9.953125 9.804688 9.953125 10.453125 L 9.953125 10.554688 C 9.953125 11.203125 9.425781 11.730469 8.777344 11.730469 C 8.125 11.730469 7.601562 11.203125 7.601562 10.554688 Z M 13.875 11.628906 C 14.523438 11.628906 15.050781 11.101562 15.050781 10.453125 L 15.050781 10.351562 C 15.050781 9.703125 14.523438 9.175781 13.875 9.175781 C 13.226562 9.175781 12.699219 9.703125 12.699219 10.351562 L 12.699219 10.453125 C 12.699219 11.101562 13.226562 11.628906 13.875 11.628906 Z M 18.972656 11.628906 C 19.621094 11.628906 20.148438 11.101562 20.148438 10.453125 L 20.148438 10.351562 C 20.148438 9.703125 19.621094 9.175781 18.972656 9.175781 C 18.324219 9.175781 17.796875 9.703125 17.796875 10.351562 L 17.796875 10.453125 C 17.796875 11.101562 18.324219 11.628906 18.972656 11.628906 Z M 25.203125 30.699219 C 24.589844 30.492188 23.921875 30.824219 23.71875 31.4375 L 21.523438 37.984375 L 19.324219 31.4375 C 19.210938 31.101562 18.949219 30.820312 18.585938 30.699219 C 17.972656 30.496094 17.308594 30.824219 17.101562 31.4375 L 14.90625 37.984375 L 12.707031 31.4375 C 12.503906 30.824219 11.835938 30.492188 11.222656 30.699219 C 10.609375 30.90625 10.277344 31.570312 10.484375 32.183594 L 13.792969 42.042969 C 14 42.65625 14.664062 42.988281 15.277344 42.78125 C 15.640625 42.660156 15.902344 42.378906 16.015625 42.042969 L 18.214844 35.496094 L 20.410156 42.042969 C 20.617188 42.65625 21.28125 42.988281 21.894531 42.78125 C 22.257812 42.660156 22.519531 42.378906 22.632812 42.042969 L 25.941406 32.183594 C 26.148438 31.570312 25.816406 30.90625 25.203125 30.699219 Z M 42.023438 30.699219 C 41.410156 30.492188 40.742188 30.824219 40.539062 31.4375 L 38.339844 37.984375 L 36.144531 31.4375 C 36.03125 31.101562 35.769531 30.820312 35.40625 30.699219 C 34.792969 30.492188 34.125 30.824219 33.921875 31.4375 L 31.722656 37.984375 L 29.527344 31.4375 C 29.324219 30.820312 28.65625 30.492188 28.042969 30.699219 C 27.429688 30.902344 27.097656 31.570312 27.304688 32.179688 L 30.613281 42.039062 C 30.820312 42.65625 31.484375 42.984375 32.097656 42.78125 C 32.460938 42.660156 32.722656 42.378906 32.835938 42.039062 L 35.035156 35.496094 L 37.230469 42.039062 C 37.4375 42.65625 38.101562 42.984375 38.714844 42.78125 C 39.078125 42.660156 39.339844 42.378906 39.453125 42.039062 L 42.761719 32.179688 C 42.96875 31.570312 42.636719 30.90625 42.023438 30.699219 Z M 48.914062 42.78125 C 49.277344 42.660156 49.542969 42.378906 49.65625 42.042969 L 51.851562 35.496094 L 54.050781 42.042969 C 54.253906 42.65625 54.921875 42.988281 55.53125 42.78125 C 55.894531 42.660156 56.160156 42.378906 56.273438 42.042969 L 59.578125 32.183594 C 59.785156 31.570312 59.453125 30.90625 58.839844 30.699219 C 58.226562 30.496094 57.5625 30.824219 57.355469 31.4375 L 55.160156 37.984375 L 52.960938 31.4375 C 52.847656 31.101562 52.585938 30.820312 52.222656 30.699219 C 51.609375 30.496094 50.945312 30.824219 50.738281 31.4375 L 48.542969 37.984375 L 46.34375 31.4375 C 46.140625 30.824219 45.476562 30.492188 44.863281 30.699219 C 44.25 30.90625 43.914062 31.570312 44.121094 32.183594 L 47.433594 42.042969 C 47.636719 42.65625 48.304688 42.984375 48.914062 42.78125 Z M 74.523438 68.609375 L 68.597656 74.53125 C 68.140625 74.992188 67.394531 74.992188 66.9375 74.53125 L 60.949219 68.546875 L 56.273438 73.226562 C 55.8125 73.683594 55.066406 73.683594 54.609375 73.226562 C 54.464844 73.082031 54.367188 72.910156 54.3125 72.726562 L 50.792969 61.113281 L 2.863281 61.113281 C 2.214844 61.113281 1.6875 60.585938 1.6875 59.9375 L 1.6875 15.585938 C 1.6875 15.585938 1.6875 15.582031 1.6875 15.582031 L 1.6875 5.386719 C 1.6875 4.734375 2.214844 4.210938 2.863281 4.210938 L 67.199219 4.210938 C 67.851562 4.210938 68.378906 4.734375 68.378906 5.386719 L 68.378906 53.007812 L 72.722656 54.328125 C 73.347656 54.511719 73.699219 55.171875 73.507812 55.792969 C 73.449219 55.992188 73.339844 56.160156 73.203125 56.296875 L 68.535156 60.960938 L 74.523438 66.949219 C 74.980469 67.40625 74.980469 68.152344 74.523438 68.609375 Z M 4.042969 6.5625 L 4.042969 14.40625 L 66.023438 14.40625 L 66.023438 6.5625 Z M 50.082031 58.757812 L 46.953125 48.429688 C 46.765625 47.808594 47.117188 47.148438 47.738281 46.964844 C 47.96875 46.894531 48.203125 46.898438 48.417969 46.964844 L 66.023438 52.296875 L 66.023438 16.757812 L 4.042969 16.757812 L 4.042969 58.761719 L 50.082031 58.761719 Z M 72.027344 67.777344 L 66.042969 61.792969 C 65.582031 61.332031 65.582031 60.589844 66.042969 60.128906 L 70.164062 56.007812 L 66.863281 55.007812 C 66.855469 55.007812 66.847656 55.003906 66.839844 55.003906 L 49.839844 49.851562 L 52.789062 59.582031 C 52.789062 59.585938 52.789062 59.589844 52.792969 59.59375 L 55.996094 70.171875 L 60.121094 66.050781 C 60.578125 65.59375 61.324219 65.59375 61.78125 66.050781 L 67.769531 72.039062 Z M 72.027344 67.777344 " fill-opacity="1" fill-rule="nonzero"/></g></svg>